/* XPM */
static char *result[] = {
/* columns rows colors chars-per-pixel */
"64 64 126 2 ",
"   c #000002",
".  c #0C0A07",
"X  c #05040B",
"o  c #08060E",
"O  c #0C0A0D",
"+  c #100D0E",
"@  c #14110C",
"#  c #060410",
"$  c #090612",
"%  c #0D0915",
"&  c #0E0A19",
"*  c #110E13",
"=  c #100B1B",
"-  c #141213",
";  c #181312",
":  c #1B1814",
">  c #171318",
",  c #18121E",
"<  c #1E1B18",
"1  c #241D1F",
"2  c #26211F",
"3  c #2C251D",
"4  c #2D281D",
"5  c #140E22",
"6  c #161024",
"7  c #181126",
"8  c #1C142D",
"9  c #1F1632",
"0  c #221B23",
"q  c #201633",
"w  c #221835",
"e  c #261A3C",
"r  c #2B2322",
"t  c #2E2528",
"y  c #322B24",
"u  c #352C2B",
"i  c #392F2A",
"p  c #3D3626",
"a  c #373028",
"s  c #3A312B",
"d  c #443A27",
"f  c #403729",
"g  c #41382C",
"h  c #483E2D",
"j  c #483E30",
"k  c #4B432E",
"l  c #4C4332",
"z  c #574A34",
"x  c #5C4D32",
"c  c #5A4A3A",
"v  c #5E5035",
"b  c #5C503B",
"n  c #645537",
"m  c #63563C",
"M  c #685739",
"N  c #6F5E3F",
"B  c #73613C",
"V  c #291D40",
"C  c #2E2146",
"Z  c #5F5440",
"A  c #635646",
"S  c #65534D",
"D  c #665550",
"F  c #6A5754",
"G  c #6C5857",
"H  c #6D6046",
"J  c #756442",
"K  c #796744",
"L  c #7D6A42",
"P  c #7B6A4D",
"I  c #7C6756",
"U  c #7C6C54",
"Y  c #7F6A59",
"T  c #816F4E",
"R  c #867147",
"E  c #887247",
"W  c #867148",
"Q  c #89724B",
"!  c #806B5C",
"~  c #8C7B57",
"^  c #8D7C59",
"/  c #97845C",
"(  c #98835C",
")  c #A08657",
"_  c #AA8F5B",
"`  c #AC915A",
"'  c #B0955C",
"]  c #978268",
"[  c #988368",
"{  c #A38D66",
"}  c #A48E68",
"|  c #A59166",
" . c #A7916A",
".. c #B79C62",
"X. c #AA9273",
"o. c #BAA373",
"O. c #BFA57D",
"+. c #C2A365",
"@. c #CAAA67",
"#. c #CBAD6A",
"$. c #D4B46D",
"%. c #D8B66E",
"&. c #DAB86F",
"*. c #C0A67F",
"=. c #CFB67D",
"-. c #DDBB72",
";. c #D3B97F",
":. c #D9BC7D",
">. c #E0BF76",
",. c #E1C077",
"<. c #E4C37C",
"1. c #D3B981",
"2. c #D8BD84",
"3. c #DDC18B",
"4. c #E8C780",
"5. c #EBCB84",
"6. c #E1C689",
"7. c #E3C88B",
"8. c #EECE89",
"9. c #EFD089",
"0. c #F2D28C",
"q. c #EED191",
"w. c #F5D691",
"e. c #F7D894",
"r. c #F9DA96",
"t. c #FBDD9A",
/* pixels */
"                                                                                                                                ",
"                                                                                                                                ",
"                                                                                                                                ",
"                                                                        X o X X                                 X o o X         ",
"        X X .                               .   X X X X X X X X       X 5 q 8 7 # X X X X X X X X X X X       X 7 w q 8 o       ",
"        X X X X                 X       . .   X X # # X # X o o       X 8 e e q % o X X X X X X # # # #       X q V e w %       ",
"          X X X                           X X X # # # # X - - l l / ( 1.3.3.*.O.A Z - X X X X X # # # X       X 8 e V e %       ",
"        X X X X O O o X o o o o O # O o   .     X # % % A 7.3.t.r.t.t.t.r.r.r.r.r.t.1.a u X X X X # X # # $ o $ 8 e w q o       ",
"          X   o 8 9 9 9 9 9 9 V 9 e 9 8 o X X X X X % % G 7.q.t.t.t.r.t.t.r.t.t.r.t.2.i a X X X       X 8 9 9 9 7 = = = o       ",
"              o 9 C V e V V V V e e C e # X X X y y o.o.t.t.t.t.t.r.t.r.r.t.t.r.t.r.r.7.7.y y X       X 9 C C e 7 = = % X       ",
"              o 9 C V V V V V V e C C e # X X X y y o.o.t.t.t.t.t.r.r.t.t.r.t.t.r.t.r.7.3.u y X         9 C C e 7 = = = X       ",
"              O 9 9 9 V V V 9 V e e e 9 $ X k k 7.3.t.t.t.t.t.t.t.t.t.t.t.t.t.t.t.r.t.r.r.1.1.> -       8 e e 9 7 = = % X       ",
"              X = 6 6 6 5 6 6 5 % $ % $ X l q.q.t.t.t.t.t.t.t.t.t.t.t.t.t.t.t.t.t.t.t.r.t.r.r.^ ^       # % % $ # o o X         ",
"              X & & & & & 5 & % # X X   . l q.q.t.t.t.t.t.t.t.t.t.t.t.t.t.t.t.t.t.t.t.t.r.t.t.^ ^         X X X X X X X         ",
"              X & & 5 & , = = & o X X a p q.t.r.t.r.t.t.t.t.t.t.t.t.t.t.t.t.t.t.t.t.t.t.t.t.t.w.w.4     X X X X o X X X         ",
"              X & & & & & & & & X X X p p 7.r.t.t.t.t.t.t.t.t.t.t.t.t.t.t.t.t.t.t.t.t.t.t.t.t.w.w.y   X X X X X X X o X         ",
"                % & & 5 $ # o o X < < 2.2.r.t.t.t.t.t.t.t.t.t.t.t.t.t.t.t.t.t.t.t.t.t.t.t.t.t.t.t. .& & X X X X X X X X         ",
"              X % , & & # X o $ O | | t.r.t.t.r.t.t.t.t.t.t.t.t.t.t.t.t.t.t.t.t.t.t.t.t.t.t.t.t.t.q.u u # X # X X # X X         ",
"                % & & & o X X # O | | r.r.r.t.r.t.t.t.t.t.t.t.t.t.t.t.t.t.t.t.t.t.t.t.t.t.t.t.t.t.q.u u o X X # X X # X         ",
"              X & & & * o X X l l e.e.r.r.t.t.t.t.t.t.t.t.t.t.t.t.t.t.t.t.t.t.t.t.t.t.t.t.t.t.t.t.t.U I # # X X X X X X         ",
"        X X X X X O o X X X X h k e.e.r.r.r.t.t.t.t.t.t.t.t.t.t.t.t.t.t.t.t.t.t.t.t.t.t.t.t.t.t.t.t.I P X # X X X X   X         ",
"        X X X X X X X X     O ;.1.r.r.t.t.t.t.t.t.t.t.t.t.t.t.t.t.t.t.t.t.t.t.t.t.t.t.t.t.t.t.t.t.t.1.1.$ # # X X X X X         ",
"        X X X X X X X X X   b r.e.e.r.r.r.t.t.t.t.t.t.t.t.t.t.t.t.t.t.t.t.t.t.t.t.t.t.t.t.t.t.t.t.t.q.e.2 2 # # X X X X         ",
"        X X X X   X X X X X b e.e.r.r.t.r.r.t.t.t.t.t.t.t.t.t.t.t.t.t.t.t.t.t.t.t.t.t.t.t.t.t.t.t.t.e.e.2 2 X   X X X           ",
"        X .   X X o X X O O =.e.e.r.e.r.r.r.t.t.t.t.t.t.t.t.t.t.t.t.t.t.t.t.t.t.t.t.t.t.t.t.t.t.t.t.r.t.k l           X         ",
"            .   X o # X % % =.e.e.e.r.r.r.r.r.t.t.t.t.t.t.t.t.t.t.t.t.t.t.t.t.t.t.t.t.t.t.t.t.t.t.r.t.r.k k                     ",
"          .   . X X # # h g 0.w.w.e.e.e.r.r.r.t.r.t.t.t.t.t.t.t.t.t.t.t.t.t.t.t.t.t.t.t.t.t.t.t.t.t.t.t.J H                     ",
"        X .   X X X X X ( ( 0.w.0.w.e.e.r.r.r.r.t.t.t.t.t.t.t.t.t.t.t.t.t.t.t.t.t.t.t.t.t.t.t.t.t.r.r.r.^ ^ o o X X X X         ",
"        X X X           / / 0.0.w.w.e.e.e.e.r.r.t.r.t.t.t.t.t.t.t.t.t.t.t.t.t.t.t.t.t.t.t.t.r.t.t.t.r.r.[ [ q 8 = % % $ X       ",
"        X X X X     . . :.:.0.0.0.w.0.e.e.e.r.r.r.r.r.t.t.t.t.t.t.t.t.t.t.t.t.t.t.t.t.t.t.t.t.t.r.r.r.r.X.X.V e 7 = = = X       ",
"        X X X X     . . :.:.0.0.0.w.w.w.e.e.e.r.r.r.t.t.t.t.t.t.t.t.t.t.t.t.t.t.t.t.t.r.t.t.t.r.t.r.r.r.X.X.V e 7 = = % X       ",
"        X X X X X   4 4 8.5.9.0.0.0.0.w.w.w.e.r.r.r.t.r.t.t.t.t.t.t.t.t.t.t.t.t.t.t.t.t.t.r.t.t.r.r.e.r.X.X.e e 5 & % % X       ",
"              o 8 q D S 5.5.5.8.8.0.9.w.0.w.w.e.r.e.r.r.r.t.t.t.t.t.t.t.t.t.t.t.t.t.t.r.t.r.r.r.r.e.0.w.} } 5 = % o X X         ",
"              o w C G F 4.4.5.9.8.9.0.0.0.w.e.e.r.r.r.r.t.t.t.r.t.t.t.t.t.t.t.t.r.t.r.t.t.r.r.r.r.e.w.w.{ { = & o X X X         ",
"              o w e ! ! <.5.4.8.5.8.8.9.0.0.w.w.e.e.r.r.r.t.t.t.t.t.t.t.t.t.t.t.t.t.t.r.r.r.e.w.w.w.0.0.( ( & & $ X X           ",
"              o 8 e Y Y <.<.4.8.8.8.8.0.0.0.w.e.e.e.r.e.r.r.r.t.t.t.t.t.t.t.t.t.r.t.r.r.r.r.e.e.e.0.0.0.[ ^ & % o X X X         ",
"          X X o % & P P <.<.<.5.4.8.8.8.8.9.9.0.w.w.e.e.e.t.r.t.t.t.t.t.t.t.t.t.r.r.r.e.e.e.e.0.0.0.0.<.Q Q X # X X X X         ",
"        X X X X X o L L <.,.<.<.<.4.4.5.8.8.9.0.9.w.w.w.e.e.e.t.q.t.t.t.t.t.t.t.e.e.e.w.w.0.0.9.w.<.9.<.m M X X X X X X         ",
"        X X o X X X K K ,.<.<.<.<.5.4.8.8.8.9.0.0.w.w.w.e.e.r.r.t.t.t.t.t.t.t.t.e.e.e.w.0.0.0.0.0.0.<.0.m m X   X X X X         ",
"        X X X X X o N N ,.,.<.<.<.4.<.4.5.8.9.9.9.9.0.0.w.e.w.e.t.q.t.t.t.t.t.t.w.e.0.0.0.0.9.9.<.9.<.<.h f X X X X o X         ",
"        X X X o # X N N ,.,.,.<.<.4.<.5.4.8.8.8.8.9.w.w.w.w.w.e.t.t.q.t.r.r.w.e.w.w.0.0.0.9.9.9.9.5.<.<.p p X   X X X X         ",
"        X X X X X o z z -.-.,.,.<.<.<.<.4.5.8.5.8.8.8.8.0.0.0.w.q.q.t.q.0.w.0.w.0.0.9.9.9.9.5.<.5.<.:.:.< :   X X X X X X       ",
"        X o X X X X y y -.-.-.>.,.,.,.<.<.<.<.4.5.5.5.8.8.0.8.0.q.q.q.q.0.0.0.0.9.9.9.<.5.<.<.<.<.,.....X X   X X X X X         ",
"          X X X X X y y -.-.,.,.,.<.<.<.<.4.4.4.5.5.8.8.8.8.0.0.q.q.q.q.0.0.9.0.9.9.8.8.9.<.5.<.<.<.....X o X X X X X X         ",
"          X     X   * + #.#.-.-.-.-.-.<.<.<.<.<.4.4.4.5.5.5.5.8.q.q.9.9.9.5.5.5.<.9.5.<.<.<.<.<.<.,.x n q w w w 5 & % % X       ",
"                    O + #.#.-.-.,.,.,.<.<.<.4.<.4.4.5.4.5.5.8.8.5.8.9.9.9.9.8.9.5.5.5.<.5.<.<.,.<.,.x x e C C e 7 = = % X       ",
"                        R R -.-.-.-.-.,.,.<.<.<.<.<.<.4.4.4.4.5.5.<.9.9.<.5.<.5.<.<.<.<.<.,.,.>.>.$.@ ; e V V V 7 = = % X       ",
"        X o o o o o o o r 3 %.-.-.-.-.-.-.-.>.,.<.,.<.<.<.<.<.4.<.3.<.<.<.<.<.<.<.<.<.,.,.,.,.>.&.n   X w e e e 5 & = o X       ",
"      X 6 8 8 8 9 8 8 8 t t $.-.-.-.-.-.-.-.>.>.>.<.>.<.<.<.<.<.4.4.4.<.<.<.<.<.<.<.>.>.>.>.>.>.>.M X X = * = % $ o O X         ",
"      o 9 V V V V e V e 5 5 Q &.%.-.&.-.-.>.>.>.>.>.>.>.>.>.<.<.,.,.<.<.<.<.,.,.>.>.>.>.&.>.&.' ' + X X   X X X X X X X         ",
"      o 9 V V V V V e V 7 = Q &.-.-.-.-.-.-.-.>.>.>.<.>.<.<.,.,.<.<.<.,.<.,.,.,.>.>.>.-.>.&.>.` ' * X X X . X X X X X X         ",
"      X 9 e e e e e e w 5 = 0 ..` %.%.-.-.-.-.-.-.>.-.-.>.-.<.,.>.>.>.>.>.>.-.>.>.>.>.&.>.+.@.1 3 X X o X X X o X X X           ",
"        $ & % & 5 5 5 5 = = = 0 1 ` ` &.&.&.-.&.-.-.-.-.-.-.-.-.>.>.-.-.&.>.&.>.-.-.-.+.+.u i & o X o X X X X X # X X X         ",
"        X o X o & = = = = = = r 1 ` ` &.&.&.-.-.&.-.-.-.-.-.-.-.-.-.>.-.>.&.>.&.-.-.>...+.i i = $ X X X X # # X X X # X         ",
"        X X X # & = = = = = = = % > > L B &.&.&.&.&.-.-.-.-.&.-.>.&.%.-.&.>.-.&.%.%.) t t = = & o X X X # # X X X # X X         ",
"          o X # % & & & = = = & $ > > L L $.&.&.-.&.&.&.-.-.-.&.&.%.>.&.&.>.&.&.-.%.) t t = = & $ X $ X X X X # # X X X         ",
"        X X X o # $ $ $ & = = & # o X o X y E E @.@.&.&.&.&.&.&.&.&.&.&.%.%.` ` c c , & = = = & & & & & $ X X X X X X           ",
"        X X X X X X X $ & = & & # o X # X X o X : : d d n K J L L B B x y a = > & = = = & = = = & & & & $ X X X X X X X         ",
"        X X X X X X X X & & = & o X X o X X . X : : d d n B J L B B B x y u > = & = = = = = = & & 5 & & X X o X X X X X         ",
"          X X X X X X X % & & % X X X o X X X X X   X   X X X X X     X o $ % % % % % = & & & & & & & & o X X X X X X X         ",
"                        X X X                                           X X   . X X   X X X X X X X X                           ",
"                                                                                                                                ",
"                                                                                                                                ",
"                                                                                                                                "
};
