/* XPM */
static char *result[] = {
/* columns rows colors chars-per-pixel */
"64 64 220 2 ",
"   c #010102",
".  c #0A0906",
"X  c #04040B",
"o  c #08060E",
"O  c #0C0A0B",
"+  c #110E0C",
"@  c #13110D",
"#  c #1B130E",
"$  c #050410",
"%  c #090612",
"&  c #0C0915",
"*  c #0E0A19",
"=  c #110E12",
"-  c #100B1B",
";  c #151215",
":  c #1A1414",
">  c #1E1A13",
",  c #1B151C",
"<  c #1D1B1B",
"1  c #16131B",
"2  c #231D14",
"3  c #231E1C",
"4  c #211716",
"5  c #262117",
"6  c #292117",
"7  c #2B241A",
"8  c #29241A",
"9  c #322A1E",
"0  c #35271A",
"q  c #150E22",
"w  c #171024",
"e  c #181126",
"r  c #1C132D",
"t  c #1E1532",
"y  c #221C23",
"u  c #201633",
"i  c #221835",
"p  c #251A3B",
"a  c #281E3E",
"s  c #2B2523",
"d  c #2B2328",
"f  c #342D22",
"g  c #3A2E22",
"h  c #332B2B",
"j  c #352727",
"k  c #3B3324",
"l  c #3C342C",
"z  c #373022",
"x  c #3D3833",
"c  c #423323",
"v  c #41352A",
"b  c #443A2C",
"n  c #4B3D2E",
"m  c #433726",
"M  c #4B3E32",
"N  c #463F36",
"B  c #4C412F",
"V  c #4D4438",
"C  c #594935",
"Z  c #554A3A",
"A  c #5B4D3A",
"S  c #544836",
"D  c #5E503D",
"F  c #554229",
"G  c #644937",
"H  c #6C5333",
"J  c #65543B",
"K  c #6E552D",
"L  c #291D40",
"P  c #2E2246",
"I  c #33274A",
"U  c #4B4441",
"Y  c #564E45",
"T  c #5D554B",
"R  c #645643",
"E  c #6B5B45",
"W  c #6C5E4A",
"Q  c #655846",
"!  c #745E44",
"~  c #665D56",
"^  c #6F614C",
"/  c #756144",
"(  c #7B6545",
")  c #73624B",
"_  c #7C684C",
"`  c #6E6254",
"'  c #6C665A",
"]  c #786953",
"[  c #7D715E",
"{  c #7B7365",
"}  c #805632",
"|  c #956F3C",
" . c #9E7237",
".. c #9B723B",
"X. c #89683B",
"o. c #A77A3F",
"O. c #836945",
"+. c #836B4A",
"@. c #8E6D47",
"#. c #8F724C",
"$. c #937245",
"%. c #93744A",
"&. c #9D794B",
"*. c #9A7647",
"=. c #836F56",
"-. c #84745C",
";. c #8D795C",
":. c #897458",
">. c #967C59",
",. c #976F4A",
"<. c #A47B45",
"1. c #A97E44",
"2. c #A77E49",
"3. c #A16D47",
"4. c #8C7B62",
"5. c #887C6A",
"6. c #937D60",
"7. c #9A825E",
"8. c #AD8146",
"9. c #AD834B",
"0. c #B1864C",
"q. c #B2854A",
"w. c #AC8A5B",
"e. c #A58457",
"r. c #B38B54",
"t. c #B38E5A",
"y. c #B3845A",
"u. c #B5915F",
"i. c #BB925B",
"p. c #968263",
"a. c #99866A",
"s. c #9B8977",
"d. c #989078",
"f. c #8E816C",
"g. c #A38D6E",
"h. c #A98C69",
"j. c #AB926E",
"k. c #B59363",
"l. c #B69669",
"z. c #BA9A6C",
"x. c #B7986B",
"c. c #A28E72",
"v. c #AB9575",
"b. c #A4937A",
"n. c #AA967A",
"m. c #AC997A",
"M. c #AA9675",
"N. c #B99C72",
"B. c #B39E7D",
"V. c #B79B75",
"C. c #B78B63",
"Z. c #BBA17C",
"A. c #C39E6A",
"S. c #C49764",
"D. c #C19D74",
"F. c #C8A36D",
"G. c #CAA572",
"H. c #C7A677",
"J. c #D2AE7C",
"K. c #D4AB75",
"L. c #D9B17B",
"P. c #E3B679",
"I. c #E3B578",
"U. c #9C9882",
"Y. c #AA9B84",
"T. c #B19E82",
"R. c #BAA483",
"E. c #BEA886",
"W. c #B3A48C",
"Q. c #BDAB8D",
"!. c #B7A587",
"~. c #BBAC93",
"^. c #B4AD95",
"/. c #C5AB83",
"(. c #CBAA83",
"). c #DCBB8C",
"_. c #D6B484",
"`. c #C2AE90",
"'. c #C6B293",
"]. c #C9B695",
"[. c #C9BB9C",
"{. c #D2BD9B",
"}. c #CFB389",
"|. c #E5BB82",
" X c #E5BD89",
".X c #E5BE90",
"XX c #CEBDA3",
"oX c #D7C09B",
"OX c #EAC28B",
"+X c #E7C28E",
"@X c #EECB99",
"#X c #E7C696",
"$X c #F1CE9D",
"%X c #D5C3A3",
"&X c #DDC9A8",
"*X c #D9C8A6",
"=X c #DBD3B2",
"-X c #E9CCA2",
";X c #E4CCA8",
":X c #EED1A5",
">X c #E5D1AF",
",X c #EDD5AD",
"<X c #F2D7AC",
"1X c #F3D4A5",
"2X c #E9D6B4",
"3X c #EDD9B7",
"4X c #E6D9B8",
"5X c #F5DCB3",
"6X c #F2DEBA",
"7X c #F9DFB6",
"8X c #F5E0BC",
"9X c #FAE4BE",
"0X c #F9E0B7",
"qX c #E6E0BF",
"wX c #E9E8C8",
"eX c #F7E3C0",
"rX c #FAE6C2",
"tX c #FEEAC6",
"yX c #F1EECB",
"uX c #FFFFDC",
/* pixels */
"                                                                                                                                ",
"                                                                                                                                ",
"                                                                                                                                ",
"                                                                          X X X X                               X X X X         ",
"          X X                           .   .   X X X X X X X X       X w r r e % X X X X X X X X X X X       X w u u r o       ",
"        X X X X                   X X     .   X X $ $ $ X X X X       X r p L u & X X X X X X X $ $ $ $       X u L a p &       ",
"        X X . X                         .   X   X $ $ $ X X X X     X X e L p t & X X X X X X X $ $ $ $         r a a i %       ",
"        X X X X o O o o o o o o o o o o X . X   $ $ X $ X X X X X o $ % e t t t & X $ X $ X X X X X X $ $ o o % y p p u o       ",
"        X   X o r t t t t t p t t i i t $ X   X X X X X .       r p i u w q q - % o o $ X X X X       X r t t t e q q - X       ",
"              o t a p L L L L L a L P i $ X X X X X X         X i L a p e * - * % o o o X X X           t a P p e * - * X       ",
"              o t L L L L L L L L L P p $ X X X   X   X X     . i L L p e - - * $ o o X X X X X       X t P P p e - - *         ",
"              X t p p p p p a L p p i t o X X X X X X X X X X . i p p i w - - * $ o o $ X X   X       X r p a t q * - & X       ",
"              . * w w e q e e w & % % $ X X .     X   O r a a a e q - w - - - * $ X o X X X X X         o & % % % % o X         ",
"              X * * * - * - * & X X X X   .   X   X . & a I I P q - - - - - * * o X   X X X X X X       X X X X X X X X         ",
"              X * * - - * 1 - * X X X X .     . .   X O a I I P w - - - - - - * o X X X X X X X         X X X X X X X X         ",
"              X * * * - * - * * X X X X .   . .   X X O t a a a - - & & & & * & o X X X X X X X X X   X X X X X X X X X         ",
"                * * * - & o o $ X X X   . X X .   X X X & * - = o X o X X X $ X X X X X X   X X % & & & X $ X X X X X X         ",
"                * * - * o X X $ X X X X X . X X X X   X X X X X   .   . X X X   $ $ $ $ X X   X & * * * $ $ X $ $ X X X         ",
"                & * * * o X X X X X . . X . . X X X . X X X o X .         X X X X $ X X X     X & * * w $ X $ X X X X X         ",
"                & * * * o X X X X . X X   X X     X X X X X X X   . X   X X X X X X X X X X X X & * * W o $ X $ X X $ X         ",
"        X X X X X o o X X   X X                                 X X X . O @ O X X   X   X o 4 = X $ @ h.b X X X X X X           ",
"        X X X X X . X .   X             + > > > @ @ + . .       X O > 5 5 5 2 2 O . X   X O J J s X m $.:.; X X X X X X         ",
"        X o X X X X X X X X   X       2 7 7 7 7 8 8 8 8 8 > @ + @ > 8 5 5 5 6 6 2 2 > > # < W J _ k G X.e.h o X X X X X         ",
"        X . X X X X X X X     X X O 2 f f 7 7 9 z k k 9 8 8 8 8 8 8 8 5 6 0 2 2 2 2 2 6 7 k ) E C g.J H +.h X X X X X           ",
"        X .   X X X X o X X X = 9 B ( +.E S b z 9 B C S b k 9 8 7 7 8 8 7 8 5 8 6 7 7 7 0 b ] A ] e.7.( ;.;.f X     X           ",
"          . . X X X X X * B B C #.t.J.G.0.&._ D B / 8.*.D k z z f 7 7 9 f 7 7 7 9 0 0 g g v -.E 4XH.V.[.Q.!.!.@                 ",
"          . . X X $ $ ; f.N.#.@.$.q.F.,X3XG.q.&.^ _ 8.8.#./ A B k z z Q ^ n m 9 g g g g k c W 4.&X] n.%Xm.#.p.b.                ",
"          .   X X X l a.N.&./ 8.O.%.0.#X8X,XF.8.&.&.8.9.9.9.e.>.D k k ^ *X'.-.D M b b m b M ] !.;.E *X'.Z.E.R.'.d X X           ",
"          X X X   x Z.z.k.O.$.8.8.+.9.).eXeX).q.8.8.0.r.r.r.r.w.=.W Z B !.tX8Xa.W A Z Z A A f.Q.Q.m.T.` ^.K p.E.- & & &         ",
"        X X X X : m.x.u.r.H #.8.8.( 8.K.8XeX6XF.0.0.0.r.r.r.u.u.w.e.;.) ^ 2XtX&X-.] Q R R R b.Q.%XwXd.-.f.d.^.E.:.j * * X       ",
"        X X X X -.x.u.t.8...%.8.<._ 8.H.8XeXtX).r.r.r.r.t.u.u.k.l.l.l.>.] b.eXrX].-.] R E ^ Q.=XuXuXuXuXyX%X4.B.z.0.M &         ",
"        X X X g x.k.r.9.o...#.<.$.+.0.+X8X4XtX:Xr.r.r.u.u.u.k.k.l.x.N.N.j.4.Q.tXeXn.=.) -.] 4XuXuXuXuXuXuXuXyX[./.r.1.j X       ",
"            @ >.u.0.8.o. ...*.+._ &.i.,XeXeXtXrXJ.t.t.u.u.l.l.l.z.F.A.N.Z.B.m.2XtXT.4.g.j.:.qXuXuXuXuXuXqXwXuXuXyX*X_ V 1       ",
"            F t.r.1.o. ...1.$.A ( 8.J.9X2XoXrXtX0X#XJ.z.u.u.l.C.G.L.L.F.Z.R.R.;XtX!.c.`.j.p.[.=X4X=X=X=X[.5.^.wXuXuXU.< ;       ",
"          > $.9.o. .@._ ! 1.%.E *.i.3XtX].;.oXrXtXtX5X)._.K.G.G.J.L.P.K.H.E.R.%XtX3X6X6XR.g.g.c.4.' V h d U T ' { d.U.<         ",
"        @ B *...| O.! Y k 1.9.&.9.J.rXrXZ.;.p.m.%X8XtXtX9X8X5X-XG.P.I.I.J.H./.3XtXtXrX8XQ.V Z s ; * * * * * * * r 1 X .         ",
"      . 6 C / / J A l s 7 8.9.9.i.,XtX>Xp.g.M.g.a.M.` [ W.XX&XG.|.P.I.I.P.L._.>X;X{.}.J.S       & * * * $ $ X X X X X X         ",
"    . > 6 z z k k l ; . H 0.9.0.).rX9X[ p.m.M.M.M.c.8 X - y h k.OXI.I.P.|.z.O.w.t.K.+X@XE   X X & - - - X X X X X X X X X       ",
"  . # > 2 5 6 7 7 : g K 9.r.F.oXrXtXf.O T B.Z.E.~.a.& $ - - , w.OX|.P.OX>.=   c K.@X$X$Xm.X   X & * * * X X X X X X X X         ",
"    . . + @ + X o K r.0.F.@X9X4XW.' & X l R.'.[.].Y X $ * * y t.OX|. XH.:   X X A #X1X5X7X6.X X & * * * X X X X X X X X         ",
"        X X X X o 8.9.G.0X>X' O X X X X s E.oX%Xb.1 X $ $ $ : H.OXOXOX_ X       @ Z.1X9XtXrX' $ $ % X $ X   X   X X X X         ",
"        X X X X 4 8.J.8X~.< X X X X X X l '.&Xd.1 $ X X X $ g |.OXOX).s         X W #XtXtXtX4X~ X X X X X X   X X X X X         ",
"        X X X X k A.rX>Xd X X X X X X . 4.&X>XT X X $ X $ X M  XOX#X>.o         X X z /.tXtXtXrXU X X X X     X X X X X         ",
"        X X o X H -XtXf.X X X X X . X X -.2X3X{ $ X X $ X $ +.#X$X+Xl X X X X   X X X 8 T.tXtXtXrXY X X X X X X X % X X         ",
"              X w.tX4Xx X o X X X X X X 8 [.6XY.o X X X X X W @X$XV.. X e i u r $ X X X o ' 8XtXtX8X& X r i i u q & & &         ",
"              + ).tX~.< X X X X X X X X X d.8XXX< X X X X X ! $X1X-.  . t L L i & X X X X ; 5.qXtXtXV X p P P L e - - - X       ",
"              k 0XtXT X X X X X X X X X X V 6XeXT X X X X X >.1X-Xb   X r L L p & X X X X X & Y rXtX%X: i P L L e - - &         ",
"        X o o f.tX4X; o X o o o X   X X X ; W.tXW.; X X X : (.<XoX5   X t a L p & $ $ $ X X X o { tXtXY.p a p p q * * & X       ",
"      X w r ~ 6XtXW.r e q * % % X X X X X X V 6XeX~.` y X l :X5Xm..   X r L p p - * & & $ X o X o %X:XtXY.d y q % $ X X         ",
"      X t L 6.:XtXs.L p q q - - o X X X .   . d.rX;X(.A $ V 5X7X-.    o r L L p q - - * $ X X X X V ! >X7X&XV.G X X X X         ",
"      X t L G K.2XI P p e - - * $ X X X     . s T.C.G 4 X V 7X6X;Xa.v o r L p p q - - * % o X X o X . ` .XD.2.,.X X X X         ",
"      o t L v S.6.P L L w - - * $ X X X .     . = 4 o X $ h #X.X.X(.@.o r p p i q - - - % X X o X X X o n m 4 # X X X           ",
"        % & = } G q q q - - - * $ $ $ X       X & - * * o y h.C.S.3.0 . - w w e q - * - * * * * % X X X X $ X X $ X X X         ",
"        X X X X * - - * - - * * $ $ $ $         & - - * o o 4 # 0 # .   - q - w * * - - - - * * % X X X $ X $ X X X $ X         ",
"        X X X % * * - - - - - * & $ $ X         & * - * o X o X         * - q - q - - * - - - * % X X X X X $ X X $ X X         ",
"        X X X o * * * * - - - * $ $ $ X         & & * & o o X X       X * - - q * - - - - * - * % X X % o X X $ $ X X X         ",
"        X X o X $ % o $ * - - * o X X X X X X X X X X X X X X X       X % * * * - * - * - - - * * * * & % X X X X X X X         ",
"        X o X X X X X o * - * * o o X o X X X X X X X   X X X X X     X % & * * - - - - - - - - * - * * % X X X X X X X         ",
"          o X X o X X o * * - * % X X X X X X X X   X X X X X X   X     % * % * - - - - * - - * * - - - % X X X X X X X         ",
"        X . X X X X X X & * * & o X X X X X X X X       X X X X       X $ * % % & & & - * * * * * * * & X X X X X X X X         ",
"                        X   X .                                           X .     X   X X   X   X   X X                         ",
"                                                                                                                                ",
"                                                                                                                                ",
"                                                                                                                                "
};
