/* XPM */
static char *result[] = {
/* columns rows colors chars-per-pixel */
"64 64 229 2 ",
"   c #000002",
".  c #04040B",
"X  c #08060E",
"o  c #0B0A0B",
"O  c #0A0806",
"+  c #120D0D",
"@  c #15120E",
"#  c #1F100E",
"$  c #050310",
"%  c #090612",
"&  c #0C0915",
"*  c #0E0A19",
"=  c #100B1B",
"-  c #120D15",
";  c #141213",
":  c #1A1613",
">  c #1E1A13",
",  c #191219",
"<  c #1E191C",
"1  c #221C14",
"2  c #261C19",
"3  c #321C10",
"4  c #252117",
"5  c #262119",
"6  c #2B251A",
"7  c #2F291D",
"8  c #322A1F",
"9  c #3E311F",
"0  c #140E22",
"q  c #180F2A",
"w  c #171025",
"e  c #181126",
"r  c #1C142D",
"t  c #1E1920",
"y  c #1E1433",
"u  c #221B24",
"i  c #201633",
"p  c #221835",
"a  c #261A3C",
"s  c #281E3E",
"d  c #2A2422",
"f  c #2A2526",
"g  c #352D22",
"h  c #362D27",
"j  c #3B3225",
"k  c #3D342A",
"l  c #373023",
"z  c #2F2732",
"x  c #393330",
"c  c #332738",
"v  c #492E1C",
"b  c #453B2C",
"n  c #4A3E2D",
"m  c #423626",
"M  c #553B27",
"N  c #423A33",
"B  c #493D35",
"V  c #4E3231",
"C  c #633C24",
"Z  c #4C422F",
"A  c #54442D",
"S  c #4D4231",
"D  c #4B433A",
"F  c #524535",
"G  c #554A3B",
"H  c #5A4D3B",
"J  c #584833",
"K  c #5F523C",
"L  c #78492C",
"P  c #714B30",
"I  c #64533D",
"U  c #69563A",
"Y  c #6A5232",
"T  c #7B613E",
"R  c #291D40",
"E  c #32264B",
"W  c #2F2447",
"Q  c #643B43",
"!  c #544A44",
"~  c #5C5245",
"^  c #554C49",
"/  c #645643",
"(  c #6B5B45",
")  c #695B47",
"_  c #6D5752",
"`  c #7C6443",
"'  c #72634C",
"]  c #7A654A",
"[  c #7C6749",
"{  c #7B6A53",
"}  c #736756",
"|  c #7F735C",
" . c #6C6254",
".. c #786B62",
"X. c #7C7063",
"o. c #995E35",
"O. c #996A3E",
"+. c #9B723B",
"@. c #8C6D37",
"#. c #A0753C",
"$. c #823A4A",
"%. c #846C4C",
"&. c #856A46",
"*. c #8C714C",
"=. c #957345",
"-. c #9E7947",
";. c #91734C",
":. c #9A7646",
">. c #806D58",
",. c #857155",
"<. c #8B7455",
"1. c #83735B",
"2. c #8F7C5F",
"3. c #947957",
"4. c #976C43",
"5. c #A27C49",
"6. c #A47A43",
"7. c #A27F50",
"8. c #9B5E6C",
"9. c #887A66",
"0. c #937F64",
"q. c #9B6B70",
"w. c #9C825B",
"e. c #AC834C",
"r. c #AB8148",
"t. c #B1864C",
"y. c #AE8652",
"u. c #AD8C5D",
"i. c #A68559",
"p. c #B28A53",
"a. c #B38D5A",
"s. c #B98B5A",
"d. c #B9915C",
"f. c #A4945D",
"g. c #95846A",
"h. c #9C8668",
"j. c #968875",
"k. c #8E8373",
"l. c #A48D6C",
"z. c #AA8964",
"x. c #AD926C",
"c. c #AA9069",
"v. c #B59363",
"b. c #B4966B",
"n. c #B99A6D",
"m. c #B99668",
"M. c #A28F74",
"N. c #A39175",
"B. c #A99778",
"V. c #B49973",
"C. c #B99D73",
"Z. c #B49C77",
"A. c #B38860",
"S. c #BAA27D",
"D. c #BDA177",
"F. c #C6995D",
"G. c #C49C65",
"H. c #C99C67",
"J. c #C7A16D",
"K. c #D7A86E",
"L. c #CAA572",
"P. c #CEA974",
"I. c #C7A87B",
"U. c #DBAD72",
"Y. c #D2AB7A",
"T. c #D3A976",
"R. c #DAB17B",
"E. c #E1B273",
"W. c #E4B77B",
"Q. c #E6BA7E",
"!. c #B07E88",
"~. c #AC9E86",
"^. c #B09E82",
"/. c #B08187",
"(. c #AEA68C",
"). c #BBA483",
"_. c #BCAA8C",
"`. c #B3A388",
"'. c #B7AE93",
"]. c #B8B39A",
"[. c #ACA99F",
"{. c #BDBCA2",
"}. c #C7AC87",
"|. c #CBB18A",
" X c #DCBB8B",
".X c #D8B687",
"XX c #C5B293",
"oX c #CAB899",
"OX c #DDBF92",
"+X c #D6BB95",
"@X c #CEAF88",
"#X c #E5BB82",
"$X c #E8BE85",
"%X c #E4BC8C",
"&X c #CABFA0",
"*X c #DBC298",
"=X c #EAC38B",
"-X c #EEC994",
";X c #E7C899",
":X c #F1CE9D",
">X c #CAC1A4",
",X c #D5C2A3",
"<X c #DDCBAB",
"1X c #D7C7A8",
"2X c #D0CDB2",
"3X c #DAD6B8",
"4X c #E4CCA6",
"5X c #ECD3AC",
"6X c #EAD1A9",
"7X c #F7DBAE",
"8X c #F3D5A8",
"9X c #E6D2B1",
"0X c #EAD6B4",
"qX c #EFDBB9",
"wX c #E8DAB8",
"eX c #F3DBB4",
"rX c #F2DEBA",
"tX c #F9DEB6",
"yX c #E7E0BF",
"uX c #F6E1BD",
"iX c #FAE3BC",
"pX c #FAE0B7",
"aX c #E9E5C4",
"sX c #F7E3C0",
"dX c #FBE6C2",
"fX c #FFEAC6",
"gX c #F9F8D6",
"hX c #FEFEDB",
"jX c #F8F5D3",
/* pixels */
"                                                                                                                                ",
"                                                                                                                                ",
"                                                                                                                                ",
"                                                  .     .               . O . . .                 .             . O X .         ",
"        . . . .                           O   O . . . . . . . .       . 0 r r q $ . . . . . . . . . . . .     . w p i r X       ",
"        . . O .                   .   O O   O   . . $ $ . . . . .     . r a a y * . . . . . . . . $ $ .       O r R s p &       ",
"          . O .                         O O   O . $ $ $ . . . .       . q R y y * . . . . . . . $ $ $ $       O i a R a &       ",
"        . . . . X o X X X X X o % X o X   . .   $ $ $ . . . . . . X $ & q y y y & . . . . . . . . . $ $ . X X % r a p i X       ",
"          . . X r y y y p u 2 ; 5 1 < r % . . . . . . .       . r p p i w 0 0 = % X X X . . .   .       y y y y e = w = O       ",
"              X y c a a t 7 5 1 4 4 5 5 o . . . . .   . .       p R s a w = * * % % X X .   . .       . y R R a e = = = .       ",
"              X y R R f Z A l 5 4 4 4 4 > @ . . . .   .     . . p R R a w * = * % X X X . . . .       . y W R a e = = & O       ",
"              X y y z ' :.*.Z 7 4 5 4 5 5 5 5 ; . . . . . X X $ p a a p w = = * $ $ $ . . . . .       . y z z p e & = & .       ",
"              . = , K p.P.e.U l 6 6 5 5 4 6 5 l   O . o y R z a e 0 w = = = = * X X . . . . . . .       $ & & $ % X X .         ",
"              O ; H -.R.uXJ.*.j 8 9 6 6 6 6 5 6     O & a E E W w = = = = = = * X . . . . . . .         . . . . . . . .         ",
"              o Z :.d.eXwXP.:.Z 6 8 l 6 7 6 6 6 :     o z W E W w = = = = = = * X . . . . . . O         . . . . . . . .         ",
"            : S [ -.Y.uX0XR.r.{ Z Z J 8 7 7 7 7 > O O & y R R z = & & & & & * * . . . . . . . . .   . . . . . . . . . .         ",
"          5 9.` U r.P.uXuX4Xt.r.*.=.;./ j 7 7 7 8 O . . % * = * . O O . . . . . $ . $ . . . . . X & & & $ . . . . . . . .       ",
"        @ N.2.&.T r.P.uXuXpXd.r.r.e.e.*.Z 8 8 8 d 1 . . . . . . > M @ . .   . . . . $ . .   . > & * * * $ . $ . . $ . .         ",
"        h Z.[ =.&.r.J.eXuXiXJ.t.t.t.p.w.Z 8 g g 8 8 . . . . . . m I A 5 . . . . $ . . . . . l Y = = = * % . . $ . . $ .         ",
"        | C.U -.T -.d.6XuXuX*Xr.p.p.p.3.S g 8 g g g > . . . . X U I A [ H @ . . . . . . : U A U h * * * $ . $ . . . . .         ",
"      k Z.V.( =.&.=.p.=X0X1X;Xp.a.u.a.<.F l l l l l 7 o       O ' I g._.c.<.X . . . . h w.<.K ( D % X . . . . . . . . .         ",
"    . 1.Z.v.Y =.:.;.e..XuX<X5Xa.a.d.d.,.F j l l l l l 6 o O O   ~ ( h.iXc.c.T 9 7 6 6 ,.w.yX1.' N . . . $ . X . . . .   .       ",
"    > l.V.v.T 5.:.{ e.P.iX<XdXL.y.d.v.w.K j j j j H J g 1 1 1 1 Z ' 9.dXx.V.XXx.` K H K w.<X' | , . . . . . . . . . . .         ",
"    5 x.b.a.T :.r.] e.J.eX0XuX;Xa.b.b.c.' Z k j B _.' m 7 6 6 6 6 2.' 9Xw._.XX_.S.i.| w.S.oXU | . . . . . . . . .   . .         ",
"    j a.v.a.@.` 5.%.y.d.6XiX9XdXn.b.n.b.,.S k b oX0X{ S m g 8 8 g H j.Z.{ XXx.,.) ).S.S.{ &.l.D .     .     .       .           ",
"    m i.v.u.=.&.) <.a.d.*XfXXXeXJ.n.V.V.h.) b K sXoX{ ) B b m j k k | ' `.}.v.b.w.g.XXXXl.V.D.H                   .             ",
"    9 6.a.p.-.+.[ 3.a.u..XdX,X<XJ.n.D.D.x.{ G ,XsXdX1.{ / F F B b n { ' '.|.1.w.S.`.|.1XZ.Y ].N.) o                             ",
"    m =.6.p.#.+.i.i.a.u.L.uX4X,XI.V.D.S.S.| F `.fX4X0.9.{ ( H H A { _.N.M.B.'.+.{ }._.>XN.f.} M.wX{.; . . o X O O . . .         ",
"    Z &.-.#.#.O.i.v.v.u.I.iXqXoX*XV.S.).).l.w.R..XsXqXj.l.1.( F ~ 1.`.'.l. .| (.(.`.S.S.).>.B.2XjX .y q i i y r 0 & & & O       ",
"    k ' =.#.#.&.*.u.v.u.Y.dXdX_.;Xx.x.V.v.P.W.W.G.9XdXXXg.l.,./ K } >X>XB.B.B.B.9.g.D.v.n.2.&XgXaX~ y y a R s a q * = & .       ",
"    6 G &.+.+.%./ &.i.u.I.iXfX_.eXa.F.F.W.=XQ.E.T..XeXdXXXh.l.1.(.aXgXhXgXgXaXaXaXyX1Xu.5.i.aXhX~.a y y a R s a q & * & O       ",
"    1 k ( ] %.' G S [ v. XfXfX`.'.I.W.=X#XE.E.U.E.U. XeXrX*Xj.x.l.>XyXjXhXhXgX].>XgXhXX.! ^ 3X3Xa y y y a s a a w * * & .       ",
"    @ g Z U { ) B B S z.*XfXjX/.N Y.W.Q.=XQ.E.E.E.E.E.T.4XeXeX1Xc.w.g.>XjXhXgX_ 8.2XhX{.d h aXx $ * = w q 0 0 0 % . . .         ",
"    o 6 g k I H k k k ] *XfXfX9.o g.R.Q.E.W.E.E.E.E.E.U.U.P..X}.h.l.`.N.S.3XhX3X/.q.2X2X} 9.].. % * * & * * * * . . . .         ",
"    O 4 7 g m Z j k h ! *XfXfX9.$ N K.Q.E.E.E.E.E.E.E.E.U.E.E.H.h.yXiX<Xh.l.3XgX].!.$.Q Q [.-   % * * & 0 * * & % . . .         ",
"      @ 1 6 7 l l l u z I.fXfXX.X X K.E.E.E.F.E.E.E.E.E.E.E.U.+XfXfXfXiXB.i.I.XX(.j.j.k.9.f . . % * * * & * * & . . . .         ",
"        > 4 6 7 7 5 * * h.dXfX} X o T.W.R.W.d.F.F.H.P..X X#X%XiXfXfXfX0X3.a.5XuX9X*XS.d.d.@   . & * * * % $ . . . . . .         ",
"        o > 4 4 4 @ . X ) iXfX..X X P.=X=X=XU.=XpXdXfXfXfXfXrXsXfXfXfX1Xi.a.6X.Xi.d.P.=X:X<.  . & * 0 * . . . . . . . . .       ",
"        . o > 1 > X . . N tXfXk.X X w.=X=X=XP.=X8XfXfXfXfXfXfXrX<X0XqXx.y.y.-.d.#X=X=XiXfXiX`.; & * * * . . . . . . . .         ",
"        . X @ > @ . . . d 0XfX(.. o T =X-X-Xn.=. X:XdXfXfXfXfXfXfXqX,XZ.I.V.@.Y.-X-X-XdXfXfXfX].t * * * . . . . . . . .         ",
"        . . o @ % . . . d 4XfX,X. . &.:X:X:X=X; B D.:XeXpXdXdXfXfXfXeX4Xx.l o U  X:X:XiXfXfXfXfXoXk X X . . . . . . . .         ",
"        . . . + . . . $ f 9XfXuX; . 4 *X8X8X8XF $  .9XOX;X;X+X}.|.h.J g @       Z Y.8X7XiXiXfXfXfX1X^ &     . . . . . . .       ",
"        . . . O . . . . d <XfXfXX.. : *X7X7X7XN.. , rX4X4X+X@X' : X . .         . Z I.;X8XpXpXiXfXfXuX~.k . $ . . . . .         ",
"        . . . . . . . . . (.fXfXwX+ . S.pXpXuX5Xf $ |.%XP.L.s.v X . . . .   . . . . > k ( g.).4XtXfXfXfXwX(.D & . . $ X         ",
"              . .   . . & `.fXfXfX} . / pXiXfXdX9.. k J L M C o O . . . w r y r $ . . . . $ - f ) XXiXfXfXfXqX9.c * * % O       ",
"                        z 9XfXfXfX1X5 @ l.fXfXfX(.. . . + + o         . y c R p & . . . . . . X . 5 B.sXfXfXfXfX'.B = & .       ",
"                .   O   ~ 6X6XqXeX9X|.. ; iXfXfXfXG . . . . . .       o y R R a & . . . X . . .     . G 4XdXiXfXfXfX&X..D @     ",
"        O X X X . X . o u A.#XT.U.H.s.1 5 fXfXfXfX9X! X . . . .       . r a R a & . $ X . . . . .     . p ..@X5XfXdXfX4X@X%.    ",
"      . w r r r r r q q 0 , M 4.4.o.3 o } rXeX0XuX5X%XV . . .         O r R a a = * & & $ . . $ O . . . - - 2 | rXtX%XT.A.M     ",
"      O i s R R R R R a 0 = = - # o . . l.-X%X%X.XK.F.V . . . .       . r R a a q = = * % . . . . . . . . . . O h z.y.M v .     ",
"      X y s R s a R R a e = = = $ . . . j 3.H.K.H.7.C # . . . .       . r R a a = = = * % . . . . . . . . . . . . . o .         ",
"      . y a a a a a a p 0 = = - $ . . . o 3 P C o.v = % . . . .       . r a a a w = = = % . $ $ . . . . . . O . . . O .         ",
"      . X & & * 0 0 0 0 = = = * % $ $ .     O O % & * * $ . . .       . * e r e * = * = & * & & % . . . X . . . $ . . .         ",
"        . . . % * = * = = = = * $ $ $ $         % * * * $ . O .       . * 0 = = = = = = 0 * = * % . . . . $ . X . $ . . .       ",
"        . . . X * * = = = * = * $ $ $ .         * = = * X X . .       . * , 0 = = = = * * = = * $ . . . . . $ . . $ . .         ",
"        . . . . * * * * = = = * & $ $ .         % * * * $ X . .         & 0 = 0 = = = = * 0 * * % . % . $ . . $ . . . .         ",
"        . . X . X % $ % = = = * X . . . . . . . . X . . . . . . .     . o * * * = * = = * = = * * & & & % . . . . $ . .         ",
"        . O . . . X . . * * = * % . X . . . . . .   . . . . . . .     . % & & & = = = = = = = = * = = * X . . . . . . .         ",
"        . O . . . . . X * * = * . X . . . . . . .     . . . . .     . . % * & * = = = & = = = * = = = * X . . . . . . .         ",
"        . . . . . . . . & * * & X . . . . . . . .   .   .   . .         $ % % * * & & & & * * * & * * * . . . . . . . .         ",
"            .   .       O O . .   .     .                   .           . O . . O . . O . O . O . O . .   .     .               ",
"                                                                                                .                               ",
"                                                                                                                                ",
"                                                                                                                                "
};
