/* XPM */
static char *result[] = {
/* columns rows colors chars-per-pixel */
"64 64 224 2 ",
"   c #010102",
".  c #0A0906",
"X  c #04040B",
"o  c #08060E",
"O  c #0C0A0D",
"+  c #110C0D",
"@  c #17150D",
"#  c #050410",
"$  c #090612",
"%  c #0C0915",
"&  c #0E0A19",
"*  c #110E13",
"=  c #100B1B",
"-  c #151212",
";  c #1A1513",
":  c #1E1A13",
">  c #19141C",
",  c #1C171B",
"<  c #231D15",
"1  c #231D1D",
"2  c #271A14",
"3  c #262116",
"4  c #292117",
"5  c #272219",
"6  c #2B241A",
"7  c #2E281D",
"8  c #30261B",
"9  c #332A1E",
"0  c #392B1E",
"q  c #150E22",
"w  c #171024",
"e  c #191324",
"r  c #1C142D",
"t  c #1F1921",
"y  c #1E1532",
"u  c #1F1830",
"i  c #241C22",
"p  c #241C2D",
"a  c #201633",
"s  c #221835",
"d  c #251A3C",
"f  c #281E3E",
"g  c #2B2322",
"h  c #2D2828",
"j  c #362D22",
"k  c #392D21",
"l  c #352D2B",
"z  c #3C3324",
"x  c #3C332B",
"c  c #36302A",
"v  c #3C3735",
"b  c #2F2E31",
"n  c #423425",
"m  c #42362A",
"M  c #443A2A",
"N  c #463926",
"B  c #4A3D32",
"V  c #433B33",
"C  c #513925",
"Z  c #4F402D",
"A  c #5A452A",
"S  c #4D4232",
"D  c #48433C",
"F  c #524535",
"G  c #564A3A",
"H  c #5B4D3B",
"J  c #574935",
"K  c #5E503E",
"L  c #6A502F",
"P  c #6A4E34",
"I  c #64543D",
"U  c #6A553A",
"Y  c #725B3B",
"T  c #291D40",
"R  c #2E2246",
"E  c #32264B",
"W  c #534C45",
"Q  c #5F564D",
"!  c #625442",
"~  c #675A45",
"^  c #6A5B45",
"/  c #61554B",
"(  c #6D5F4A",
")  c #645A48",
"_  c #775E42",
"`  c #635A52",
"'  c #756146",
"]  c #7C6545",
"[  c #75634B",
"{  c #7D674B",
"}  c #7B6B56",
"|  c #6D6354",
" . c #815F35",
".. c #956D39",
"X. c #9B7139",
"o. c #97703D",
"O. c #86653B",
"+. c #A3773D",
"@. c #846945",
"#. c #836B4A",
"$. c #8A6E48",
"%. c #856845",
"&. c #926B43",
"*. c #8E724B",
"=. c #937247",
"-. c #9C7849",
";. c #997645",
":. c #8D7A5D",
">. c #827157",
",. c #947C5D",
"<. c #937853",
"1. c #A57B44",
"2. c #AA7F45",
"3. c #A47C4A",
"4. c #A87F48",
"5. c #A87D58",
"6. c #877967",
"7. c #947D61",
"8. c #9A815E",
"9. c #AD8147",
"0. c #AE834B",
"q. c #B08245",
"w. c #B1854A",
"e. c #B3894E",
"r. c #AC8A5C",
"t. c #AA8757",
"y. c #B38A53",
"u. c #B48E5A",
"i. c #B68A54",
"p. c #B5905E",
"a. c #BB925A",
"s. c #9A8566",
"d. c #928269",
"f. c #99866C",
"g. c #968467",
"h. c #9C8C74",
"j. c #9A8770",
"k. c #8A8470",
"l. c #A18662",
"z. c #AD8C62",
"x. c #A48B68",
"c. c #B28B66",
"v. c #AA916B",
"b. c #B69364",
"n. c #B4946A",
"m. c #B6996D",
"M. c #B99A6D",
"N. c #B89768",
"B. c #AD9B7D",
"V. c #A89575",
"C. c #B49973",
"Z. c #B29D7D",
"A. c #B99C71",
"S. c #A28F74",
"D. c #BBA37E",
"F. c #C7995C",
"G. c #C99E65",
"H. c #D29F6D",
"J. c #C6A16D",
"K. c #D6A668",
"L. c #CBA473",
"P. c #C8A578",
"I. c #D4AB76",
"U. c #DDB278",
"Y. c #E1B273",
"T. c #E4B87C",
"R. c #E0AF7B",
"E. c #9D9888",
"W. c #948284",
"Q. c #AE9D86",
"!. c #AEA186",
"~. c #B4A58A",
"^. c #BDAA8C",
"/. c #BBA685",
"(. c #BDAE93",
"). c #B8B69C",
"_. c #B6B3A4",
"`. c #C6AC87",
"'. c #CCB38A",
"]. c #D9B684",
"[. c #DBB88A",
"{. c #C2AF92",
"}. c #C4B394",
"|. c #C9B899",
" X c #D5BD99",
".X c #E7BC82",
"XX c #E8BF87",
"oX c #E4BE92",
"OX c #CCBFA1",
"+X c #C8BABD",
"@X c #DCC198",
"#X c #E9C28B",
"$X c #E7C18C",
"%X c #E2C295",
"&X c #E4C699",
"*X c #ECC595",
"=X c #F1CE9C",
"-X c #D4C3A3",
";X c #DCC9A7",
":X c #DAD4B5",
">X c #CCC8AC",
",X c #E9CDA1",
"<X c #E2CCA6",
"1X c #EBD3AC",
"2X c #E7D1AC",
"3X c #F1D6AC",
"4X c #F4D5A7",
"5X c #EAD5B2",
"6X c #EFDBB9",
"7X c #E8D8B6",
"8X c #F2DBB3",
"9X c #F2DEBB",
"0X c #F8DDB3",
"qX c #F0CEA2",
"wX c #F5E1BE",
"eX c #F9E2BC",
"rX c #EEEBCA",
"tX c #E6E3C4",
"yX c #F9E5C2",
"uX c #FEEAC6",
"iX c #F5E6C4",
"pX c #F6F4D2",
"aX c #FFFFDC",
"sX c #FAF8D6",
/* pixels */
"                                                                                                                                ",
"                                                                                                                                ",
"                                                                                                                                ",
"                                                                          X X X                                 X X X X         ",
"          X X                       X   .   X   X X X X X X X X       X w r r r # X X X X X X X X X X X       X w a a r o       ",
"        X X X X                           .   . X # # X # X X X       X r d d y & X X X X X X X # # # #       X a T f d %       ",
"        X X .                           .     X X # # # X X X X       # r T d y & X X X X X X X # # # #         r f f s $       ",
"        X X X X o O O X o o o o o o o o X . X   # # X # X X X X o $ # $ w y y r $ X # X X X X X X X X # # o o $ r d d a o       ",
"          X   o r u y y y y y d y y s y o X   X X X X X       X r s s a w q q = $ o o o X   X X       X r y s y e = q = X       ",
"              o y f T T T T T T T T R y # X X X X X   X X     X s T f d w = = & $ o o o X X X X         y T R d e = & & X       ",
"              O y T T T T T T T R T R d $ X X X X X   X       X s T T d w & = & # o # o X X X X       X y R R s e = = &         ",
"          X   . y d d d d d d d d d y y # X X X X X X X X . . . s f d s w = = & $ # X o X X X           u d f y w & = % X       ",
"              X & w w w q w w w & # $ o X X X     X   O p f f f q q q = = = = & o o X X X X X X         o $ $ $ # o o X         ",
"              X & & & = = = & & X X X X   .   .   X . % f E E E q = = = = = = & o X X X X X X X X       X X X X X X X X         ",
"              X & & = = = = = & o X X X .     X   .   O f E E R q = = = = & = & X X X X X X X X         X X X X X o o X         ",
"                & = = = = & & & o X   X   . .   . .   % u u p h = * * * , < = % X X X X X X X X X X   X X X X X X X X X         ",
"                & = = = o o o # o X X X X X   . . X . O ; : 5 3 < : 3 3 3 < < @ + O o X X X   X $ % $ % # X # X X # X X         ",
"                % = = & o o X X X X X . X . X X . @ : 5 5 5 5 3 3 3 3 3 3 3 3 6 < < + o X   X X $ = = & # X X X X X X X         ",
"                % = = = o X X X X X   X X . . : 7 6 9 z x 7 5 5 5 3 3 3 4 6 < < < < 4 2 X X   X & & = & # X X X X # X X         ",
"                % & % & o X X X X X . 3 9 : 7 7 z z K ] ] Z 9 7 7 7 6 6 6 6 6 2 4 6 6 6 6 6 + X $ & & & # X # X X X X X         ",
"        X X X X X . o X X   X : S ] ] L Z z z z z M *.9.+.H x z j 7 5 6 6 6 6 6 6 8 8 8 8 9 8 % # # o o o X o X X X X           ",
"        X X X X X X o X   * ) r.y.o.J I U ] *.{ ' ( 9.9.9.8.$.( H Z 9 7 7 j j 9 9 9 9 k k k z 6 X g c + X X X X X X X X         ",
"        X X X X X X X o l } b.e.w.A ] @.w.e.e.e.9.9.9.q.9.9.0.9.<.K M 9 0 z m z 0 j k k z z z z * , 8.I - o X X X X X X         ",
"        . X X X X X X 5 :.A.y.q...$.;.9.w.J.3X8X&Xa.q.q.w.w.y.y.y.8.J z x S M B z z P Y Y I Z M N 1 Z ;.O.* X X X   X           ",
"          . X X X o S v.p.y.q.q.L ;.9.{ 9.y.,XeXwX1Xe.w.e.e.y.y.t.8.' J G [ G F F B S ^ %.r.C.7.S M J I Y Z   X   X X           ",
"        .     . X j 8.p.y.q.2.X.L 9.q.;.$.w.L.eXwXwXa.w.y.y.p.u.p.r.8.h.-XB.[ K G G S ( #.m.z.C.>.U { 8.g.} :                   ",
"          . .   3 *.y.9.1.X.X.X.Z 9.q.9.' 9.y.].uX9X@Xw.y.u.p.p.b.N.m.@XeXwXf.6.~ H K H ~ S.D.l.v.'.`.m.8.x.)                   ",
"        X   X @ I o.*.o.o.{ { @.I -.9.9.^ 9.w.I.uX9XeXI.y.p.b.b.N.m.m.C.6XuX~.s.>.^ K K F F B.>.~ (.D.m.N.v.B.1 X X X           ",
"        X X X z #.$.( $.' ( [ Q O.] 9.$.] w.q.%XuX:X-X3XJ.p.N.m.A.C.J.M.-XuXwXZ.C.} ! K J 6.^.~.g.^.B.g.;.v.^.Q = % % %         ",
"        X X : S I H G G S F F O X.{ { K 9.w.J.8X9X8.g.2X&XJ.N.m.N.J.U.I. XyXuX7Xs.x.K ) g.}.|.-X^.d.J k.V.!./.p._ i = = X       ",
"      . @ < 7 k z z c z M x - . 9.] H *.0.y.,XuXf.:.8./.wX,XU.I.].@XU.U.P.;XuXuX^.C.d.E.pXaXaXpX!.;X>X}.d.( h.A.e.3.l =         ",
"    . @ : 3 4 6 7 7 j z 9 - X k w.*.<.0.u.@XeX~., g.V.g.S.-X<X<X@XI..XY.I.U.wXeX6XC.B.:XpXaXaXaXaXaXaXsXrX:XOX-X'.) v b X       ",
"    . @ @ : < < 2 6 8 6 > = , X.w.0.e.y.%XiX>X> & x.Z.B.V.,.4.F.U..XY.Y.Y.K.y.9XuX6XC.2X(.rXaXaXaXaXaXaXaXaXaXaXaX_.: O         ",
"      . + @ @ < < 1 p d q = L 0.9.y.J.&XyX;Xg o e C./.{./.s.a.XX#XY.Y.Y.Y.F.7 z x.5X;X`.{.~.7X7XOX>XsXaXtX_._.>XrXrXD           ",
"              O s T f d q n +.y.@XeXuXuX!., o o i /.-X-X/.l.K..XY.Y.Y.Y.G.N X X $ %.N.v.c.,.=.@ # & t v 6.E._.+XW.W # X         ",
"              o y s d a i ..u.,XeX}.| v X o o o l  X<X Xf.Y R.Y.Y.Y.Y.K.A X X X X ; +.F.K.K.Y.0 & & & & & & w W B % X X         ",
"        X X   X % & & >  .a.,X9X` % X X X X o X c <X2Xh.i _ .XT.Y.I.-.z . X X X X X < =.Y..X4X} $ & = & $ # X X o X X X         ",
"        X X o X o X X 4 3.&XyXQ o X o X X o X X % }.6Xh.i t.XX.XI.L % X X   X   X X X . _ 0XuX2Xi & = & X X X X X X X X         ",
"        X X X X X X # n p.eX~.# o X X X . o X X o Q 9X-XB L.#XXXa.; X X X X   X X   X X O 1XuXuXx = = & X X X X X X o X         ",
"        X X X X o X X k '.uX` # X X X o X X X X X # -X6Xx.#X*X$XH o X X   X   X X X   X X 5XuX6X& & & & X X X X X X X X         ",
"        X X X X o X X [ eXuXW X X X X X X X X X # X 6.6X[.,XqX7.O X X X       X X X   X / qXuX6.X o # # X X X   X X o X         ",
"        X X o X # X $ Q.uXuXD X X X X X X X X X X X W 2X%XqXoXl X X X X         X X X $ {.qX1Xh # X o X   X   X X X X X         ",
"        X X X X X X $ (.uXwXx X X   X X o X o X X # b @X,X3X'.B o X X X         X X - x.oXoXl.# X X X X X     X X X X X         ",
"        X X X X X o o E.uXuXQ o X X X X X X o X X # l }.0X4XP.%.o X X X   X X   X X S *XR.5.m # # X X X X X X X X X # X         ",
"                X X   h.uXwX5Xx.j X X X X X X X X X o d.0X<Xk +       X e y a r # X 4 K.H.2 X o X     X r s s a q % = $         ",
"                      x  XoXoXL.r.X X . X X X X X o * |.uX9X| V j     o r T T d % X X < 2 # X X       X d R R T w = = = X       ",
"                      + 7.c.5.&.C   X   X X X X X # = Q.uX5X XP.v.k   o a T T s & X X X # X X X         s R T T r & = %         ",
"        X o o o o o o # % - ; @ X X X X X   X X X X # x  XoXc.,.P ;   o r T T d & X X # X o X X X     X a f f d q % & % X       ",
"      X q y r r r r r r & & & & o X X X     .   o # # # x P 2 *       X r T T d = & % % o o X X X X X X * = = * $ o o o         ",
"      X a T T T T T T d q & & & o X X X   X   X X # # X X X X         o r d T s q = = = # X # X X X X X . X X X X X X X         ",
"      X y f T T d T T T e = = & # o X X .       X # # # X X X X       X r T f d q = = = o X X X o X X X X X X X X X             ",
"      o y f d d d d d a q = = & # X X X   . . X # # # # X X X X       X w T d d q & = = # X o X X X X X X   X o X X o X         ",
"        $ % $ & q q q q = = = & $ # # X         $ & & & o # o X       X = e e w q q & & & & & & $ X X X # X X X # X X X         ",
"        X o o # & = = & = = = & # # # X         & & & & o X X X         = = q = & & & = = = & & $ X X X # X X X X X # X         ",
"        X X X X & & = = = = = & $ # # X         % & & & # X X X         % q = q & q = = = = = & $ X X X X X X # X # X X         ",
"        X X X o & & = & & = & & # # # o         $ & & & o o X X       X & = q q & & = = & = = & $ X o o X # # X X X X X         ",
"        X X X X # $ $ $ & = = & o # X X X X X X X o o # X X X X X     X $ & & = = = = = = = = & & & & % # X o X X # X           ",
"        . X X X X X o X & = = % o X X o X X X X X X       X X X       X $ % & & & = = & = = = = & & & = $ X X X X X X X         ",
"        X X X X X X X # & & = & o X o o X X X X   X X X X X X X X       $ & % & = = = = = & = & & = = & o X X X X X X X         ",
"          X X X X X X X % & & % X X X X X X X X X       X X X X       X # $ $ $ % % % = & & & & & & & & X X X X X X X X         ",
"                        X   X                                           X   X     X   X X   X   X   X X                         ",
"                                                                                                                                ",
"                                                                                                                                ",
"                                                                                                                                "
};
