/* XPM */
static char *_da11405d5f9413896c1da367c89ab1bB2Tljd3MWMPV4d46[] = {
/* columns rows colors chars-per-pixel */
"70 70 137 2 ",
"   c #000102",
".  c #04040B",
"X  c #08060F",
"o  c #050311",
"O  c #0A0613",
"+  c #0D0A15",
"@  c #0D0916",
"#  c #0D0917",
"$  c #0E0917",
"%  c #0C0A17",
"&  c #0E0A16",
"*  c #0E0A17",
"=  c #0C0915",
"-  c #0F0C17",
";  c #0B0814",
":  c #0D0718",
">  c #0E0919",
",  c #0E0A18",
"<  c #0E0A19",
"1  c #0F0A19",
"2  c #0F091A",
"3  c #0D0A1A",
"4  c #0E0A1A",
"5  c #0F0A1A",
"6  c #0F0B1A",
"7  c #0F0A19",
"8  c #100B1A",
"9  c #100B1B",
"0  c #110C1B",
"q  c #130F1B",
"w  c #100B1C",
"e  c #110B1C",
"r  c #110C1C",
"t  c #120D1C",
"y  c #120D1D",
"u  c #110C1E",
"i  c #110D1E",
"p  c #130D1E",
"a  c #120C1F",
"s  c #130D1F",
"d  c #110B1C",
"f  c #120D20",
"g  c #140E22",
"h  c #150E23",
"j  c #150F23",
"k  c #160F23",
"l  c #150E24",
"z  c #150F24",
"x  c #150E21",
"c  c #161023",
"v  c #161024",
"b  c #171024",
"n  c #171124",
"m  c #171125",
"M  c #171024",
"N  c #181125",
"B  c #181126",
"V  c #181127",
"C  c #191127",
"Z  c #191227",
"A  c #191127",
"S  c #191228",
"D  c #191229",
"F  c #1A1229",
"G  c #19112B",
"H  c #1A132A",
"J  c #1B132A",
"K  c #1A132B",
"L  c #1B132B",
"P  c #1C132C",
"I  c #1C152C",
"U  c #1C142D",
"Y  c #1D162D",
"T  c #1D142F",
"R  c #1E152F",
"E  c #1D162E",
"W  c #1C142D",
"Q  c #1E1530",
"!  c #1F1631",
"~  c #1D1432",
"^  c #1E1532",
"/  c #1F1532",
"(  c #1E1433",
")  c #1E1533",
"_  c #1E1234",
"`  c #1F1335",
"'  c #1E1235",
"]  c #201532",
"[  c #201632",
"{  c #201633",
"}  c #201733",
"|  c #211634",
" . c #211734",
".. c #211733",
"X. c #211834",
"o. c #211835",
"O. c #221835",
"+. c #221836",
"@. c #231837",
"#. c #231937",
"$. c #221836",
"%. c #231938",
"&. c #23183B",
"*. c #251C38",
"=. c #261D39",
"-. c #261D3A",
";. c #23183C",
":. c #24183C",
">. c #24193C",
",. c #25193C",
"<. c #24193D",
"1. c #251A3C",
"2. c #261B3C",
"3. c #261A3D",
"4. c #271B3E",
"5. c #271B3F",
"6. c #271C3D",
"7. c #271C3E",
"8. c #261A3D",
"9. c #281C3E",
"0. c #281C3F",
"q. c #281D3F",
"w. c #291D3F",
"e. c #281C3F",
"r. c #271B40",
"t. c #291D40",
"y. c #291D41",
"u. c #2A1D41",
"i. c #2A1E41",
"p. c #2A1E42",
"a. c #291D40",
"s. c #2F2347",
"d. c #2F2447",
"f. c #2E2146",
"g. c #302549",
"h. c #31254A",
"j. c #32264B",
/* pixels */
"                                                                                                                                            ",
"                                                                                                                                            ",
"                                                                                                                                            ",
"                                                                                                                                            ",
"          .   .                             .       .   . . . . .   .         O l l l e .   . . . . . . . . . . .         @ N N N p         ",
"          . . . .                   .       . X . . . . o . o . . . . .       t :.:.:._ X . . . . . . . . . o o .         N p.p.q.}         ",
"        . . . . .                               . . . X o o o . . . .         t :.&.&./ X . . X . . . . . o o . . .       N p.p.u.}         ",
"        . . . . .                       .   . . . . . . . o o . . . .         f :.&.:./ X . . . . . . . . o o o .         c p.p.q.}         ",
"          . . . . + O O O ; ; X ; ; ; ; ; ; .       . . . X X . . . . X ; ; X k } / / G X . X . . . . . . . . . . O ; ; X N @.@.#.J         ",
"                ; =.<.6.6.7.q.q.7.7.-.7.7.X.. . . . . . . .         . } 0.0.0.P 9 e e 6 X . X X . . . . .       . | 0.0.w.J 9 0 9 @         ",
"            .   X 6.7.r.7.q.q.q.7.7.7.f.f.%.o . . . . . . . .         O.u.0.p.E 9 9 9 6 X X X X . . .   .       . X.q.q.u.J 9 9 9 ;         ",
"          .     ; -.r.7.7.q.7.f.f.q.7.r.7.X.. . . . .   . .         . O.p.0.u.P 9 e e O X X X . . . . . .       . } p.q.q.J 9 9 9 ;         ",
"                O 3.3.3.7.7.7.7.q.-.7.7.=.Y . . . . . . .   . . .   . ..q.6.0.J 9 9 9 6 X . . X . . .           . X.7.7.0.J 9 6 9 ;         ",
"                . j j j c c n n n i ; ; - + . . .       . . - =.=.=.=.N c c j p 9 9 9 @ . . . . . . . . .         ; @ - @ O X . X .         ",
"                . - 9 9 6 0 t t q O   . .   . . . . .   . . q g.j.j.g.c 9 9 9 9 9 9 9 6 . . . . . . . . .         . . . . . . . . .         ",
"                . - 9 9 9 t t t q ; . . . . . . . . . . .   q g.j.g.g.x - 9 9 9 9 9 9 @ . . . . . . . . .         . . . . . . . . .         ",
"                . - 8 9 9 0 p p p ; . . .     .   . . . . . q g.j.j.d.q q - - q 2 e 2 @ . . . . . . . . .         . . . . . . o . .         ",
"                . 0 8 0 9 & O O @ X   . . . . . X   . . . . - Y Y Y Y + X + X X ; O O o . . . . . . . . . X . X . . . . . . . . . .         ",
"                  0 9 9 - X . X . . . . . . . . . . . .   . . . X . . .   . . . . . . . o . o . . . . . o t 9 9 6 o . o o . . . . .         ",
"                . 9 9 9 9 X . . . . . . X . . . . . .     . . . . X . . . . .   . . . . . o . o .   .   . 9 9 9 6 . . . . . . X . .         ",
"                . q - 9 9 . . . . . . . . . . . . . . . . . . . . . . .       . . . . . . o . o   .   . . 6 9 9 6 o o . . . . . . .         ",
"                  - - - @ . . . . . . . . . . .   . .   .   . . . . . . .   . . .     . . . . . .   . . . @ 6 6 O o . . o . o . . .         ",
"        . . . . . . . . . . . .               .               .       . . . . .   . . .       . . . . . . . O . . . . . . . . . .           ",
"        . . . . . . . . . .   . .                                     . . . . . . . . . .       . . . . . . . . . o . . . . . . . .         ",
"          X X X . X X . . .   .                                       . . . X . . . . .         . . . . . . . . . . . . . . . . .           ",
"        . .   X .   . . .     . .                                     . . . . . . X . .       . . . . . . . . . . X . . . . . . . .         ",
"        . . X . X . . X . . . . . - I I J J J J J J J J J J G J Y Y Z X . . .         . J J J J X . . . . .   . .   .   .   .   .           ",
"        . . X . . . . . . . . . . n i.w.p.u.p.p.p.p.q.p.p.p.u.u.i.i.=.+ . . .         . 3.p.p.p.O . . . .                   .               ",
"            . . . . . . X . . . . c 7.r.r.f.q.q.p.q.q.q.p.0.u.u.w.w.=.X . . .         X 2.0.q.0.6 . . . .                                   ",
"          . . . . . X X X . . . . c f.p.q.7.p.p.0.p.p.p.0.p.u.u.w.d.-.+   . .         X 0.u.p.q.6 . . . .                     .             ",
"        . . . . . . . . . . . . . 6 ) E E ! ..} } } | | | | | ] ) ..Y X . . X         . R } } } X .   . . O O O O + + + @ X . . . .         ",
"          X . . .         . . .   . . X . o @ 6 6 : 9 9 9 e 6 O O ; + X X X X .       . 9 e 9 6 .       O ' / _ / 3.q.q.q.J 6 6 9 ;         ",
"          . . . .           . . . . . . . o @ 6 : 9 6 9 e e : O O : : . X X X .       . - 0 e 2 .       O ' ' _ | r.0.u.0.J 9 9 9 ;         ",
"        . X . X .         . . . . . . . . . @ @ 9 O 6 9 9 e : : O O O O X . . .         @ 0 2 2 .       O _ ' _ ' u.u.0.p.J 9 9 6 +         ",
"          X . . .   .     . . . . . X . . o @ 6 O 6 9 9 9 9 6 O : : O . X X . .         6 6 6 6 .       : _ _ _ ' :.0.0.3.J 6 6 0 ;         ",
"                X } X.| } t % 6 @ X . . . . . ; X X 9 p j e t - : 2 : O . . . .   . . . . O o O         . e 9 e e g g g j @ . . . .         ",
"                + q.w.w.7.v - 6 - ; . . . . . o . . e j x x q 0 t 2 - . . X . . . . . . o o o o .       . 6 $ 2 6 6 6 0 9 O . . .           ",
"                + 2.w.w.7.v 2 6 6 ; . . . . . . . . 9 j x x y 0 2 e - ; . . . . . . . . o o o . .       . O 2 9 6 6 e - 9 O .   .           ",
"                + 0.u.u.6.v i 3 6 ; . . . . . . . . 9 p y c i q 6 t - . X . . . .   . . . o . X         . O 9 O O e 0 0 0 X . . . .         ",
"            . . X N N N v 3 ; % ; O . . X . . X . . O @ % % 3 i t f q X . . . . . . . . . . . .         X 9 9 2 6 O o O ; X . . . .         ",
"        . . . . . . . . . X o . o o . o . . X . X . . X . . X c f t t o . o . . . . . . . .   . .       . 9 9 9 6 . . . . . . . . .         ",
"        . . . . X . . . . X o o o . . . . . . X . . . . . . X y t c y X . . . . . . .   . . . .     . . . 9 9 9 6 . . . . . . . . .         ",
"        . . . . . . . . X . o o o o . . . . . . . . . . . . ; i t c y X . . . . .   . .   . . . .       . e 6 9 6 . . . . . . . . .         ",
"        . . . . X . . . . . o o o . . . X . . . X . . . X . X q 6 6 - X . . . . . . .   .   .   . . . . . 9 6 6 O . . . . . . . . .         ",
"        . . . . . . . X . . . . . . . . . . . . . . o o . o . o o o o . . . . .         . . . . . o o o o . . O . . . .   . . . . .         ",
"          . . X . . X . X . . . . . . . . . . . . . . . . . . o . . o . . . .           . . . . . o o o o . . . . .     . . . . . .         ",
"        . . . . . X . X . . . . . . .   . . . . o . . o o . . o o o . . . . . .         . . . . o : o o o . . . .     . . . . . . .         ",
"        . . . X . . X . X . . . . . . . . . . X . . . . o . . . o . o . . X . .         . . . . o o o o . . . . . . .   . . . . . .         ",
"                    .   . . . . . . . . . . . . .   X . X . . . . . . .       0 E E E D . . . . o o o . .       . J } } } k O - @ O         ",
"            .         .   . . . . . . . X   . . . .   X . . . . . . .         x p.r.f.X.. . . . o o . . .       . q.f.f.f.R 9 9 9 @         ",
"                  .       . . . . . . . . . . . . X X . . . . . . . .         j p.7.7.) X . . . . . . . .       . 2.u.f.p.P 9 9 9 O         ",
"                          . . . . . . . . . . . .   . X . . . .   . .         j p.p.f.#.. . . . . . . o .       . 2.s.s.h.P 9 9 9 ;         ",
"        X - 9 9 6 - 2 - 6 ; ; ; + . .   . . . . . . . X . X . . . . .         j r.p.p.| O O ; X o . . . . . .   . Y Y Y R p + O @ ;         ",
"        N p.q.0.r.r.r.r.r.n t t q + . . . . . . . . . X X . . . . . .         p 7.3.3.%.p 9 6 9 ; . . . . . . X . . . . . . . . .           ",
"        N p.0.p.r.r.r.3.3.n t t q +   X . .   . . . . X X o . . . . .         j r.3.r.%.e 9 9 9 o . . . . X . . . . . . . . . . .           ",
"        J p.q.q.p.r.r.3.3.n t t q + X   . . . . . . . . . o o . . .           f u.r.r.%.e 9 9 9 ; . . . . . . . . . . .   . . . . .         ",
"        c *.=.=.1.1.3.3.1.n t t t ; . . . .     .   o o o o . . . . . .       t 2.2.2.@.0 0 9 9 ; . o . X . . O . . X . . . . . . .         ",
"        . ; ; + 6 t f f t e e 6 2 O o o o .         ; 2 - 6 ; . . . .         + N N k s 9 9 9 9 6 6 6 6 @ . . . X . X   . . . . . .         ",
"        . . . X o - 2 6 6 e 6 e 6 % o o o o         O t 6 6 % X . . .         X s b s p 9 9 9 9 9 9 e 6 O . . . . . X . . . . . . .         ",
"        . . . . X 0 t 2 e 6 e 6 2 ; o o o .         ; 6 6 6 % . . . .         ; s s s p 9 9 9 9 9 9 e e @ . . . . . X X . . . . . .         ",
"          . . . O 9 e e 6 9 9 9 t : o o . .         ; 9 q 3 % . . . . .       ; j p p e 9 9 9 9 9 9 9 9 O . . . . . . . X X . . . .         ",
"        . X X . . ; O O O 6 9 9 6 ; . o . . . . .   . X X X . . . . .         X e e 9 9 9 9 9 9 9 9 9 9 6 O 6 O O O . X . . . . . .         ",
"          . . . . . . . . O 9 9 6 ; . X . . . . . . . .   . . . . . .         X : O O 9 9 9 9 9 9 9 9 9 9 9 9 9 e O . . . . . . . .         ",
"        . . X . . . . . X 6 9 9 - ; X . o . . . . . .     . . . . . .   .     . : : : O 9 9 9 9 9 9 9 9 9 9 9 9 6 . . . . . . . . .         ",
"        . . . . . . . . . @ 9 9 9 ; . . . . . . X . .   .   . . . . . .       . : O 2 : 9 9 9 9 9 9 0 0 9 9 9 9 6 . . . . . . . . .         ",
"          . . . . . . . . X ; ; O ; . .   . . . . . .     .   . . .           . O O O ; ; ; ; O O @ O ; O - $ O ; . . . . . . . .           ",
"                                                                                                                                            ",
"                                                                                                                                            ",
"                                                                                                                                            ",
"                                                                                                                                            "
};
