/* XPM */
static char *result[] = {
/* columns rows colors chars-per-pixel */
"64 64 189 2 ",
"   c #010102",
".  c #080606",
"X  c #04040B",
"o  c #08060E",
"O  c #0A090B",
"+  c #130E0D",
"@  c #060410",
"#  c #090611",
"$  c #0C0914",
"%  c #0E0A19",
"&  c #130E13",
"*  c #100B1B",
"=  c #161214",
"-  c #1B1413",
";  c #17111E",
":  c #1B1419",
">  c #1E191A",
",  c #241B1A",
"<  c #241A19",
"1  c #30221D",
"2  c #150E21",
"3  c #171024",
"4  c #181125",
"5  c #1C142C",
"6  c #1E1822",
"7  c #1F1632",
"8  c #231A2A",
"9  c #201633",
"0  c #221835",
"q  c #261B3C",
"w  c #281F3D",
"e  c #2C2122",
"r  c #342626",
"t  c #372925",
"y  c #3B2C2B",
"u  c #392A28",
"i  c #392933",
"p  c #412F2B",
"a  c #4E382F",
"s  c #46332A",
"d  c #443431",
"f  c #4E3932",
"g  c #4D3D3B",
"h  c #453637",
"j  c #513B36",
"k  c #594239",
"l  c #51413E",
"z  c #664B3E",
"x  c #6E4E3F",
"c  c #291D40",
"v  c #2E2345",
"b  c #352543",
"n  c #32264B",
"m  c #3E2F4C",
"M  c #4C364E",
"N  c #513F54",
"B  c #544348",
"V  c #5A444B",
"C  c #574549",
"Z  c #5B4553",
"A  c #694D43",
"S  c #664B47",
"D  c #6F5146",
"F  c #635049",
"G  c #715346",
"H  c #755649",
"J  c #7C5B4E",
"K  c #6F515D",
"L  c #7E5B5B",
"P  c #78625A",
"I  c #7D5C62",
"U  c #8D4C2E",
"Y  c #8F4E30",
"T  c #914F30",
"R  c #935233",
"E  c #9A5535",
"W  c #9E5937",
"Q  c #9C5B3D",
"!  c #A75E3B",
"~  c #A9613E",
"^  c #845F4F",
"/  c #805C50",
"(  c #A05F41",
")  c #836151",
"_  c #8A6556",
"`  c #87645A",
"'  c #8D6859",
"]  c #936C5B",
"[  c #9C735E",
"{  c #97725F",
"}  c #A26244",
"|  c #AC6441",
" . c #A76748",
".. c #AA6A4C",
"X. c #B06947",
"o. c #B46D4B",
"O. c #B7704F",
"+. c #AD6F51",
"@. c #B47455",
"#. c #BB7554",
"$. c #BC7B5B",
"%. c #B7785A",
"&. c #896464",
"*. c #866863",
"=. c #8B726C",
"-. c #9C7361",
";. c #97756C",
":. c #997C7A",
">. c #916A6A",
",. c #A07562",
"<. c #A17965",
"1. c #AB7C67",
"2. c #A57D69",
"3. c #AA7E6A",
"4. c #BE7E60",
"5. c #A57972",
"6. c #A07570",
"7. c #C17D5C",
"8. c #AA816D",
"9. c #B9866D",
"0. c #BC886D",
"q. c #AD8673",
"w. c #AF8874",
"e. c #A8897D",
"r. c #B38471",
"t. c #B28A76",
"y. c #BD8B73",
"u. c #B48C79",
"i. c #BB8C7A",
"p. c #B7907D",
"a. c #B9917E",
"s. c #C58363",
"d. c #C98666",
"f. c #C48769",
"g. c #C7896B",
"h. c #CA8B6D",
"j. c #D08E6F",
"k. c #CF906F",
"l. c #C28E74",
"z. c #C28F7E",
"x. c #C69176",
"c. c #CD9375",
"v. c #C6937A",
"b. c #CB957A",
"n. c #CF997F",
"m. c #D29374",
"M. c #D4997B",
"N. c #DA9B7C",
"B. c #AC8D81",
"V. c #B49383",
"C. c #BD9582",
"Z. c #BE9885",
"A. c #BE9B8B",
"S. c #BF9C94",
"D. c #C29986",
"F. c #C49D8A",
"G. c #CA9D8A",
"H. c #C89883",
"J. c #D29B81",
"K. c #D99E81",
"L. c #C6A18E",
"P. c #C9A18E",
"I. c #DCA082",
"U. c #D4A38D",
"Y. c #DCA48A",
"T. c #DFA98F",
"R. c #CDA794",
"E. c #CFA895",
"W. c #C7A294",
"Q. c #D1A996",
"!. c #DBA991",
"~. c #D4AD9A",
"^. c #D8AF9C",
"/. c #D5A591",
"(. c #D7B09E",
"). c #DAB29F",
"_. c #E2A485",
"`. c #E3A689",
"'. c #E5AA8C",
"]. c #E8AB8C",
"[. c #EBAF90",
"{. c #EBB49A",
"}. c #DDB5A2",
"|. c #E2B9A6",
" X c #E5BDAA",
".X c #E0B7A4",
"XX c #E4BFB0",
"oX c #E7C6BA",
"OX c #F0D2C7",
/* pixels */
"                                                                                                                                ",
"                                                                                                                                ",
"                                                              < 1 < +                                                           ",
"                                                    X   s [ N.].].N._.g.H 8 . X                   X             X . o o         ",
"        X X X X                   X       .   . X o S l.K.l.] z a a G 9.]._.^ 9 X X X X X X X X X X X X X     X 3 9 9 5 o       ",
"        X X X X                         .   . . & <.].K.J & X X       O V l.K.r.; X X X X X X X X @ @ @         9 c w 0 $       ",
"        X . . X                 . X     .   X , 1.M.` u o X X X       X 5 v &.`.-.$ X X X X X X @ @ @ @       X 5 w w q #       ",
"          X X X o o o O o o o o o o O o . . t b.M.f @ X X X X X o o X # 5 9 q / ].G X X X X X X X @ X @ o o . $ 5 q q 9 o       ",
"          X X o 5 7 7 7 7 7 7 7 0 0 0 5 @ r M.b.r X X X X     . 5 0 0 9 5 2 2 2 ' M.d @ X X X X X     X 5 7 7 7 3 2 2 * X       ",
"              o 7 w c c c c c c c c c q 8 M.c., X X X           0 c w q 3 % % % ; 4.c.* X X X X         7 c v c 3 * % % X       ",
"              o 7 c c c c c c c w c w b 9.x.r X X X X X       X 0 c c q 3 * * % @ f ].H X X X X       X 7 v c 7 3 * * %         ",
"          X   O 7 c 7 c 7 c c c q q w 2.N.p X X X X X X X O . O 0 w q 0 3 % * % # X 1.K.& X X X       X 7 q v 7 3 % * $ .       ",
"              X % 3 3 3 3 3 3 2 % $ F ].D . . .   .   O 7 w w w 3 2 2 ; * * * % @ X r N.G X X X X       @ $ # # @ o o X         ",
"              . % % % * * * * % X - N.8.O .   .   X . $ w n n v 3 % % * * * % % X X X 1.M.$ X .         X X X X X X X X X       ",
"              X % % % * 3 * * % O ' Y.e   .   . .   . O w n n v 3 % % * * * * % # X X f ].f X X X       X X X X o X X X         ",
"              X % % % % % % % % > c.^ X . . . . . X . # 7 w w w * % % % % $ % $ X X X & N.{ X X X   X X X X X X X X o X         ",
"                $ % * * # o o o k M.t X X . X .   X   X # % % % O . . O X X X X @ X X X 1.0.X X . $ $ $ X @ X X X X X X X       ",
"                % * % * o @ X e x.y.. X   . X X X X X X X o X X X   X   X X X   X @ @ @ z I.: X $ % % % @ @ @ X X @ X X         ",
"                % % % % @ X X D ].z O . . X . X X X X X X X X X   .   . X X X X X @ X X t ].f X % * % % @ X X @ X @ X X         ",
"                $ % % $ o X o 8.].- X X X . X .   X X X X X X X .     X   X X X X X X X & ].H X # % % % @ X @ X X X X X         ",
"        . X X o o o X O   X , M.0.                            X X X X X X X X X X X   X X K.] X @ @ @ @ o X X X X X X           ",
"        X X X X X X X X X X y c.x                               X X X X X X X   X       X c.] X X X X X X X X X X X X X X       ",
"        X X X X X .   X X   D b.a                   X           X X X X X X X X X     X X 9.,.X X @ X X X X @ X X X X X         ",
"        X o X X X X . X X X [ y.< X X . O X X O X X X X X . X X X o X X X X   X X X X X X c.,.X X X X X X X o X X X X X         ",
"        X . . . X X X @ X $ 0.1.4 7 7 7 9 9 9 9 9 9 9 9 9 7 7 9 o X X X X     . 8 9 9 8 @ K.] X X     X             X           ",
"          .   . X X X @ o > b._ 9 w c c c n M Z K I &.>.;.6.6.5.-.{ ] _ J G z k N M b q ; ].H X                                 ",
"        .   . X X @ @ X X , 0.) Z &.5.v._.].].].].].].].].].].].].].].].].].].].].].].I.x.].-.d ,                               ",
"          . . X X X @ : y J M.n.J.'.].`.K.K.N.m.j.h.d.7.7.7.7.#.$.$.7.7.s.d.d.c.m.N.K._.].].`.J.l.,.D y > O O o X X X X         ",
"          o X o = f ] x.`.].].N.h.%...( Q R Y R ! ! ! ! ! ! ! ! ! ! ! ! ! ! ! ! ! ~ | o.o.#.s.m.N._.'.`.b.6.S w 2 % $ #         ",
"        X o r ) v.'.Y.c.s.$.]. .Y Y U U Y Y U U U T E ! ! ! ! ! ! ! ! ! ! ! ! ! ! ~ ! ! ! ! ! ! ~ X.#.s.N._.`.H.&.p * % X       ",
"        d <.K.`.c.@.Q T U  .].} Y U U U U U U U U U U U T ! ! ! ! ! ! ! ! ! ! ! ! ! ! ! ! ! ! ! ! ! ! ! ! o.7.N.`.K.2.g .       ",
"    - ] `.`.h. .R U U U U } _.~ U U U U U U U U U U U U U U T E ! ! ! ~ ! ! ! ! ! ! ! ! ! ! ! ! ! ! ! ! ! ! ! ~ O.m.`.`.] -     ",
"  , y.`.h.} U U U U U U U } N.~ U U U U U U U U U U U U U U U U Y R ! ! ! ! ! ! ! ! ! ! ! ! ! ! ! ! ! ! ! ! ! ! ! ~ o.m.].l.<   ",
"+ x.].9.T U U U U U U U U } ]. .U U U U U U U U U U U U U U U U U U Y R E ! ! ! ! ! ! ! ! ! ! ! ! ! ! ! ! ! ! ! ! ! ~ ~ d.].x.+ ",
") ].h.T U U U U U U U U U } ].X.U U U U U U U U U U U U U U U U U U U U U U R W ! ! ! ~ ! ! ! ! ! ! ! ! ! ~ ! ! ! ! ! ! ~ m.].) ",
"n.].} U U U U U U U U U Y ( `.+.U U U U U U U U U U U U U U U U U U U U U U U U R E ! ! ! ! ! ~ ! ! ! ~ ! ! ! ! ! ! ! ! ! O.].M.",
"`.].Q Y U U U U U U U U U Q N.%.U U U U U U U U U U U U U U U U U U U U U U U U U U U E ! ~ ! ! ! ! ! ! ! ! ! ! ! ! ! ~ ! X.].`.",
"v.]...U U U U U U U U U U W N.@.U U U U U U U U U U U U U U U U U U U U U U U U U U U U U E ! ! ! ! ! ! ! ! ! ! ! ! ! ! ! #.'.v.",
"z ].N.T U U U U U U U U U R 0.s.U U U U U U U U U U U U U U U U U U U U U U U U U U U U U U Y E ! ! ! ! ! ! ! ! ! ! ! ! | N.].z ",
"  8.].c.R U U U U U U U U T k.k.U U U U U U U U U U U U U U U U U U U U U U U U U U U U U U U U U U W ! ! ! ! ! ! ! ! ~ N.].1.  ",
"  . [ ]._.@.R U Y U U U U U k.M.R U U U U U U U U U U U U U U U U U U U U U U U U U U U U U U U U U U U R ~ ~ ~ ! ~ 7._.].[ .   ",
"      a.].].I.%.R U U U U U d.N.( U U U U U U U U U U U U U U U U U U U U U U U U U U U U U U U U U U U U Y R ~ s._.].'.C.      ",
"      F R.!.'.].`.h.+.R U U @.I...U U U U U U U U U U U U U U U U U U U U U U U U U U U U U U U U U U U R ..h.`.].].!.R.F       ",
"      + L.R.R.Q.!.].].].m.s.s.c.+.U U U U U U U U U U Y U U U U U U U U U U U U U U U U U U U U R } s.m.`.].`.U.G.Q.R.L.+       ",
"        P R.R.R.R.R.U.n.`.]._.M._.c.s.@. .Q R Y T Y Y Y U U U U U U U U U U Y U U R Q ..%.f.c.`.'.].].'.Y.y.1.-.F.R.Q.P X       ",
"        = L.R.R.R.R.a.[ <.a.!.].].'.].].'.].'.'.N.M.c.k.h.g.f.f.f.d.g.h.c.c.M.I.].'.].].].].].].!.!.E.E.Z.<.-.8.P.R.L.8         ",
"          l L.R.R.E.Z.<.<.a.P.Y.].n.P.!.a.v.n.I.'.'.'.].].].].].].].].].].].].'.T.Y.v.i.r.8.R.R.R.R.E.E.p.<.<.8.R.W.V $         ",
"        . $ ;.R.R.R.L.<.<.u.L.{.[.}.L.E.t.{ 8.8.R.R.E.E.E.E.p.8.3.1.p.R.R.R.R.R.R.F.<.<.<.<.R.R.R.E.R.R.q.<.<.u.Q.:.* $ X       ",
"      X 2 7 Z R.R.R.F.2.<.q./.OXOXoXI.R.w.[ 8.-.R.R.R.R.R.R.p.{ <.<.u.R.R.R.R.R.R.L.2.-.<.<.R.R.R.R.R.L.8.{ -.A.).l X o         ",
"      . 7 c v :.}.}.E.q.<.q.G..XoX{.L.R.p.8.{ 8.P.R.R.R.R.R.p.8.<.-.w.R.R.R.R.E.R.L.<.<.<.<.R.R.E.R.E.L.8.{ 8.(.=.O X X         ",
"      o 7 c c m S.XX|.u.<.q.R.U.'.U.P.R.a.[ 8.[ F.R.R.R.R.R.t.8.<.<.w.R.R.R.E.R.R.L.2.<.<.2.R.R.E.Q.).A.-.8.u.V.> X X X         ",
"      o 7 q q q Z W.}.F.<.3.}..X).).~.E.P.8.[ 8.a.R.R.R.R.R.p.[ <.<.e.E.R.R.E.E.R.L.-.<.8.t.}.}.|.{.oXu.8.;.8.y . X X .         ",
"      X o $ $ % ; B F.L.<.<.Q. XoX X XoX}.~.R.n.R.~.~.~.E.~.p.8.<.<.w.~.Q.Q.~.Q.~.~.P.~.}. X X XoX{.(.8.-.{ y o X @ @ X         ",
"        X X X # $ * C A.q.<.C.~.).).{.|.oX{.oXoX|.oX X X X Xa.8.<.<.a.|.|.|. X X X X X X X X|.}.).~.a.8.-.y @ X @ X X X X       ",
"        X X X X % * 2 M q.2.t.R.R.R.Q.Q.Q.P.L.Q.~.|. X X XoXa.[ <.<.Z.oX X X X X X}.~.G.C.i.R.R.E.R.q.{ y o X @ X X X X         ",
"        X X X o % % % % h e.R.~.~.Q.R.R.R.a.<.<.8.v.E.~.E.~.t.8.,.<.a.Q.~.~.~.~.R.D.<.<.<.t.R.R.R.L.` e o o X X X @ X X         ",
"        X X o X o # # # % 8 =.|.oX)..X).).Q.<.<.<.u.R.R.R.R.q.<.<.<.Z.E.E.E.R.R.R.Z.<.<.<.i.~.}.~.*.6 $ @ X o X X X X X X       ",
"        X X X X X o X o % % 3 V e.}.|. X{.oXq.-.<.8.}.).).~.D.u.t.t.L.Q.Q.~.Q.(.).D.<.<.<.W..XB.Z 2 * % o X X X X X X X         ",
"        X X . X X X X X % % * % $ h V.R.~.).u.-.<.<.). X X X X XoX|.oX{.|.{.oXoX XD.<.<.<.Z.B 2 % * * % # X X X X X X X         ",
"        X . X X X X X X $ % % $ o O # d P A.a.8.<.<.Z.).).).~.).{.|.{.oXoXoX|.{. Xa.{ A y * % % % % % % X X X X X X X X         ",
"            X   X       X   . X   X         > u k D ' V.R.D.<.<.<.u.E.R.Z.p.=.P l >   X X X .   . X   .   X     X               ",
"                                                          . + + + + O                                 X                         ",
"                                                                                                                                ",
"                                                                                                                                "
};
