/* XPM */
static char *_3a1fee078f64361c5956f47e0b471f0ZOF0V7K2DtRfHf00[] = {
/* columns rows colors chars-per-pixel */
"64 64 216 2 ",
"   c #010101",
".  c #050D04",
"X  c #0A0907",
"o  c #0D0B0B",
"O  c #0A0706",
"+  c #130E0C",
"@  c #061205",
"#  c #081C07",
"$  c #091C09",
"%  c #0E110A",
"&  c #14150E",
"*  c #121412",
"=  c #1B1412",
"-  c #1B1C1A",
";  c #251C19",
":  c #0D280C",
">  c #11270E",
",  c #0E300D",
"<  c #1A2A15",
"1  c #133C11",
"2  c #193517",
"3  c #2B221D",
"4  c #27281B",
"5  c #25381D",
"6  c #2D2D2C",
"7  c #262525",
"8  c #342522",
"9  c #392926",
"0  c #3C2D2A",
"q  c #342C24",
"w  c #2C3622",
"e  c #383628",
"r  c #353535",
"t  c #3D3C39",
"y  c #412E2B",
"u  c #43342D",
"i  c #4B3632",
"p  c #493A36",
"a  c #523B37",
"s  c #563E39",
"d  c #593F3B",
"f  c #174615",
"g  c #1B5A1A",
"h  c #1A5318",
"j  c #244E1D",
"k  c #1E631C",
"l  c #1F681D",
"z  c #206C1E",
"x  c #2E5326",
"c  c #375835",
"v  c #33472D",
"b  c #266524",
"n  c #277725",
"m  c #396838",
"M  c #397E37",
"N  c #377735",
"B  c #366F2B",
"V  c #494635",
"C  c #5D433E",
"Z  c #55453A",
"A  c #4C5536",
"S  c #485133",
"D  c #436C38",
"F  c #51633B",
"G  c #487337",
"H  c #50753B",
"J  c #434342",
"K  c #4A4948",
"L  c #584744",
"P  c #415741",
"I  c #4D5949",
"U  c #53544B",
"Y  c #5A5A59",
"T  c #555451",
"R  c #614641",
"E  c #664A45",
"W  c #6A4C47",
"Q  c #6D4F49",
"!  c #674D48",
"~  c #6C5348",
"^  c #73534D",
"/  c #755B4E",
"(  c #675956",
")  c #7D5A53",
"_  c #775954",
"`  c #4C7C4A",
"'  c #477746",
"]  c #577A4A",
"[  c #596858",
"{  c #5A7B57",
"}  c #496D47",
"|  c #656947",
" . c #65605F",
".. c #7A615B",
"X. c #707252",
"o. c #6D6D6D",
"O. c #666463",
"+. c #796965",
"@. c #687968",
"#. c #77776A",
"$. c #747373",
"%. c #7B7B7B",
"&. c #7C7673",
"*. c #825D56",
"=. c #855F59",
"-. c #86615A",
";. c #8B645D",
":. c #896E5D",
">. c #85695A",
",. c #836964",
"<. c #896B66",
"1. c #936A62",
"2. c #9A6E66",
"3. c #8A776B",
"4. c #9D7169",
"5. c #987268",
"6. c #887A77",
"7. c #9A7770",
"8. c #A3756D",
"9. c #A7786F",
"0. c #AC7C73",
"q. c #A47A72",
"w. c #B17F76",
"e. c #2B8D28",
"r. c #298827",
"t. c #2D952A",
"y. c #2F9C2C",
"u. c #31972E",
"i. c #388835",
"p. c #359732",
"a. c #31812E",
"s. c #31A42E",
"d. c #33A82F",
"f. c #36A332",
"g. c #35AB32",
"h. c #3AA637",
"j. c #36B433",
"k. c #38B435",
"l. c #38BB34",
"z. c #39BA36",
"x. c #45913D",
"c. c #3AC237",
"v. c #3DCC39",
"b. c #3CC438",
"n. c #3FD13B",
"m. c #41D63C",
"M. c #41D83D",
"N. c #468A44",
"B. c #548248",
"V. c #558C4E",
"C. c #729154",
"Z. c #59B148",
"A. c #7BB35C",
"S. c #6B886B",
"D. c #778976",
"F. c #708D6F",
"G. c #968A6D",
"H. c #B28177",
"J. c #B48279",
"K. c #B9857B",
"L. c #BE897F",
"P. c #A88773",
"I. c #92AB69",
"U. c #A7B876",
"Y. c #80B95F",
"T. c #848484",
"R. c #8D8C8C",
"E. c #8B8585",
"W. c #928887",
"Q. c #899689",
"!. c #98908F",
"~. c #949493",
"^. c #9B9B9B",
"/. c #979B95",
"(. c #BE8A80",
"). c #A19E9E",
"_. c #9AA39A",
"`. c #BDA181",
"'. c #A3A3A3",
"]. c #ABABAB",
"[. c #A9A4A2",
"{. c #ADB3AD",
"}. c #B2B2B2",
"|. c #BCBCBC",
" X c #B6B8B5",
".X c #C58D83",
"XX c #C99186",
"oX c #CE9489",
"OX c #D1968B",
"+X c #D5998E",
"@X c #DB9D92",
"#X c #DFA194",
"$X c #CDB08C",
"%X c #E1A296",
"&X c #E5A599",
"*X c #E9A79B",
"=X c #EDAA9E",
"-X c #F2AEA1",
";X c #F6B1A4",
":X c #F9B3A6",
">X c #FCB5A8",
",X c #EFACA0",
"<X c #C0C1BF",
"1X c #C4C4C4",
"2X c #CCCCCC",
"3X c #D4D4D4",
"4X c #DBDBDB",
"5X c #E4E4E4",
"6X c gray93",
"7X c #ECECEC",
"8X c #EEEEEE",
"9X c #EDEDED",
"0X c #F3F3F3",
"qX c #F4F4F4",
"wX c #FEFEFE",
"eX c #FEFEFE",
/* pixels */
"wXwXwXwXwXwXwXwXwXwXwXqXqX8X8X8X6X6X6X6X6X6X6X6X6X7X7X3X1X}.].}.].}.}.}.|.1X3X5X8X7X8X7X8X7X8X7X8X7X8X7X7X8X7X8X7X8X7X8X7X8X7X8X",
"wXwXwXwXwXwXwXwXwXwXwXeXqX8X8X8X6X6X6X6X6X6X6X7X7X7X7X1X~.o.o.o.o.o.o.%.%.R.}.4X8X8X7X8X7X8X7X8X7X8X7X8X8X7X8X7X8X7X8X7X8X7X8X8X",
"wXwXwXwXwXwXwXwXwXwXwXqX0X8X8X8X6X6X6X6X6X7X4X3X2X2X1X_.@.P P P P P P I [ @.~.|.2X3X3X4X5X8X8X7X8X7X8X7X7X8X7X8X7X8X7X8X7X8X7X8X",
"wXwXwXwXwXwXwXwXwXwXwXeX0X8X8X8X6X6X6X6X6X7X1X^.T.T.%.S.N.M M M N M M M M ' S.%.T.~.'.|.3X8X8X8X7X8X7X8X8X7X8X7X8X7X8X7X8X7X8X8X",
"wXwXwXwXwXwXwXwXwXwXwXqX0X8X8X7X6X6X6X6X7X5X'.O.J t r m a.s.s.s.s.s.s.y.u.a.m v J Y $.^.1X7X7X7X8X7X7X8X7X8X7X8X7X8X7X8X7X8X7X8X",
"wXwXwXwXwXwXwXwXwXwXwXeX0X8X8X8X6X6X6X3X|._.D.{ N m m i.h.z.z.z.z.z.z.j.g.h.i.N m ' { F._.|.2X5X7X8X8X7X8X7X8X7X8X7X8X7X8X7X8X8X",
"wXwXwXwXwXwXwXwXwXwXwXeX0X8X8X7X6X6X6X<XT.Y ` i.p.p.h.h.c.n.v.n.n.n.n.v.b.c.k.h.p.i.i.{ F.R. X4X8X7X7X7X7X8X7X8X7X8X7X8X7X8X7X8X",
"wXwXwXwXwXwXwXwXwXwXwXqX0X8X8X8X5X3X1X_.S.P M h.g.y.e.t.y.g.g.d.d.s.g.s.s.s.y.t.t.u.u.N.V.S./.|.3X5X7X7X8X7X8X7X8X7X8X7X8X7X8X8X",
"wXwXwXwXwXwXwXwXwXwXeXqX0X8X8X8X3X].T.@.B.i.h.z.d.r.g h g g g g g g g g g g k l n y.j.h.i.B.F.~.].2X7X7X8X7X8X7X7X8X7X8X7X8X7X8X",
"wXwXwXwXwXwXwXwXwXwXeXeX0X8X8X8X2XR.K m i.g.j.c.d.l : # # # # # $ $ # : # # , f k e.z.g.y.N ` @.R.|.5X8X7X8X7X8X8X7X8X7X8X7X8X8X",
"wXwXwXwXwXwXwXwXwXwXwXqX0X8X8X8X2XT.J c i.g.y.r.l 1 @ @ @ @ X . @ @ . @ @ @ # : f l e.e.r.a.` { T.|.5X8X8X7X8X7X7X8X7X8X7X8X7X8X",
"wXwXwXwXwXwXwXwXwXwXwXeX0X8X8X8X1XT.r x p.j.n h : # .         O               O # 1 g b n a.' [ %.}.5X8X7X8X7X8X8X7X8X7X8X7X8X8X",
"wXwXwXwXwXwXwXwXeXeXeXeX0X7X3X|._.S.c b n r.g , & 4 i i i i i i p i p i a i u y 4 5 1 f k n N } @./.<X3X5X7X7X7X7X8X7X8X7X8X7X8X",
"wXwXwXwXwXwXwXwXeXeXeXqX0X5X}.G.[ ' i.n g f , @ 4 R 9.0.w.0.w.w.w.w.w.w.w.0.2.=.W e > , f k b B ` S.R.}.2X7X7X7X8X7X8X7X8X7X8X8X",
"wXwXwXwXwXwXeXeXeXeXeX8X4X2X~. .F ] Z.N j # - ; i 1.%X&X@XOX#X*X-X,X=X&X@XOXXXL.4.R ; < 5 j B G ] { $.~.|.4X5X5X7X8X7X8X7X8X7X8X",
"wXwXwXwXwXwXeXeXeXeXeX4X}.E.6.&.5.G.I.C.V = u ~ 2..X*XXX2.*.0.#X-X=X@X.X8.1.w.XX.X1.E Z S S | G.G.G.+.T.^.}.2X5X8X7X8X7X8X7X8X8X",
"wXwXwXwXwXwXwXwXwXwXwX1X%.K +.q.oX@X-XJ.L ; ^ .X&X=X-Xw.C ; *.oX-X&XOX8.Q i 1.+X*XXX9.1.^ E 4.@X%XJ.>.,.<.T.}.4X7X7X7X8X7X8X7X8X",
"wXwXwXwXwXwXwXwXwXeXwX1X&.J ..w.OX&X;XK.W 8 ) .X=X-X-Xw.R 3 *.OX-X&XOX8.Q i 1.+X=XoXH.1.) ^ 9.%X&XK.-.,.&.T.}.3X8X7X8X7X8X7X8X8X",
"wXwXwXwXwXwXwXwXeXeXeX1X%.J ) 0.OX&X>X(.^ 9 *.XX=X-X-Xw.W 8 =.+X-X&X+X9.^ Z 2.@X=XOXJ.2.*.^ 0.%X&XK.;.,.&.T.}.3X7X8X7X8X7X8X7X8X",
"wXwXwXwXwXwXwXwXeXeXeX<X%.K +.0.XX@X,X.X;.W 4.+X,X,X=X.X=.W 8.#X;X*X@XK.1.) 0.@X=X@X.Xw.2.1.K.%X%XJ.-.,.6.T.}.4X8X7X8X7X8X7X8X8X",
"wXwXwXwXwXwXwXwXeXeXeX2XT.T +.q.L.oX%X+XL.w.OX*X-X*X%XOX.Xw.OX,X;X-X=X@XXXK.XX%X&X&X%X+XXXL.oX@XOX0.=.,.6.~.}.4X7X8X7X8X7X8X7X8X",
"wXwXwXwXwXwXwXwXeXeXwX2X~. .,.8.w.L.XX+X*X;X;X;X-X%XOX@X*X:X>X>X:X:X:X:X-X=X&X@X#X=X;X-X=X&X@XOXL.8.,.3.E.^.|.4X8X7X8X7X8X7X8X8X",
"wXwXwXwXwXwXwXwXeXeXeX5X|.^.W.6.,.*.) 2.XX*X*X*XoX9.*.2..X&X-X;X:X:X:X*X+X.Xw.8.8..X&X%X+X.Xq.;...,.3.W.'.|.2X5X7X8X7X8X7X8X7X8X",
"wXwXwXwXwXwXwXwXeXeXeXqX5X2X'.&.T p ; L 9.%X@X+Xw.Q 8 d 2.+X&X-X:X:X-X@XK.8.) C E 4.+XoXJ.8.^ i p Y T.).1X5X5X6X8X7X8X7X8X7X8X8X",
"wXwXwXwXwXwXwXwXwXwXwXeX0X5X<X~.o.K 7 L 5.oX(.0.<.s ; y Q 2.L.@X&X%X@XK.1.Q d y a *.H.w.8.1.^ J K $.).|.3X8X7X8X7X8X7X8X7X8X7X8X",
"wXwXwXwXwXwXwXwXwXwXeXeX0X6X4X2X].$.J ( 5.K.2.) R i 8 8 y a *.w.XXL.w.;.R 9 y y i W -.;.1.<.+.o.%.'.1X4X5X7X8X7X8X7X8X7X8X7X8X8X",
"wXwXwXwXwXwXwXwXeXeXeXqXqX6X8X6X3X'.$.+.<.2.*.R a s a y ; ; s 1.9.8.1.W y = 8 u Z R E ^ ) <.6.W.'.1X5X8X8X8X7X8X7X8X7X8X7X8X7X8X",
"wXwXwXwXwXwXwXwXeXeXeXeXqX8X8X6X5X1X].R.+.E W ^ *.=.2.) a 8 a ^ *.^ ^ R a i W =.;.) ^ ^ _ o.W.].1X4X7X7X8X8X8X7X8X7X8X7X8X7X8X8X",
"wXwXwXwXwXwXwXwXeXeXeXeX8X6X8X6X7X5X5X'. .7 L -.9.XX%XK.) i i s s s a d E ^ 4..XXX4.) (  .O.^.2X7X7X7X7X7X8X7X8X8X7X7X7X7X8X7X8X",
"wXwXwXwXwXwXwXwXeXeXeXqXqX6X8X8X7X4X3X^.[ 7 v C ) 9.oXJ.;.W W W W W W ^ *.=.4.w.9...Z Z U [ Q.1X4X7X7X7X8X7X8X7X7X7X7X8X8X7X8X8X",
"wXwXwXwXwXwXwXwXeXeXeXeX0X6X8X8X5X3X XQ.} j 7 7 y ^ 0.9.2.;.;.1.;.;.;.1.1.2.2.1./ Z 4 r c [ T.{.2X4X7X7X7X7X8X7X8X7X8X7X8X7X7X8X",
"wXwXwXwXwXwXwXwXeXeXeXeX0X6X5X5X3X}./.F.` b 2 $ = i ) -.>.:.:.:.:.:.:.:.>.>.^ E a w : 2 c ' S._.|.2X5X5X7X8X7X8X7X8X7X8X7X8X8X8X",
"wXwXeXeXeXeXeXeXeXeXeXeX0X7X4X2X{.Q.S.V.x.e.g : % ; 9 V S F F F F F F F A A V 8 4 4 , h B i.V.F.Q.{.2X3X5X8X8X8X8X8X8X8X8X8X8X8X",
"wXwXeXeXeXeXeXeXeXeXeXqX0X7X2X}.R.{ B a.g.l.n , . .   # 1 g g g g g g f f f : . . : f k e.f.i.G S.Q. X2X4X8X8X8X8X8X8X6X8X8X8X8X",
"eXqXeXqXeXqXqXeXqXeXqXeXqX6X<XR.@.{ B.N.Z.Z.B 2 . .   , k r.r.r.r.r.r.r.n k 1 @ X > 5 B x.Z.V.] { D.^.|.4XqXqXqXqXqXqXqXqXqXqXqX",
"8X8X8XqX8X8XqX8X8X8XqXqXqX8X].O.I X.C.A.Y.Y.H 5 .   O f r.c.l.m.m.l.c.j.s.r.h # X > 5 G C.Y.A.x.] @.T.].3XeXeXeXeXeXeXeXeXeXeXeX",
"8X8X8X8X8X8X8X8X8X8X8X8X7X4X). .U X.I.U.U.U.C.u ; + . f t.m.m.M.M.m.m.v.j.y.k : = q V X.I.U.I.G.X.#.$.^.2X8XqXeXwXwXwXwXeXeXeXeX",
"8X8X6X6X6X6X6X6X8X8X6X5X2X|.!.+...G.L.$X$X$XP.^ i 4 . f t.m.m.M.M.m.m.v.j.y.b > ; s / G.U.$XL.P.G.7.3.!. X4X5XqXwXwXwXwXeXeXeXeX",
"6X6X6X6X6X6X6X6X8X8X6X3X}.!.E.<.5.(.#X,X;X;XoX8.^ y o f t.m.m.m.M.m.m.c.j.t.b 5 y ^ 9..X*X:X&X+XL.q.<.W.[.|.4X0XwXwXwXwXeXeXeXeX",
"6X6X6X6X6X6X6X6X8X8X8X1X^.o.6.7.H.oX=X;X:X;X%XoX4.Z + 1 z s.j.m.m.n.v.j.t.n x q s ;..X%X=X:X,X&XoXP.,.6.!.].2X6XwXwXwXwXeXeXeXeX",
"6X6X6X6X6X6X6X6X6X8X8X|.%.T ,.0.XX#X;X:X>X>X;X-X.XQ + : h n y.c.m.m.c.s.z h j e E 9.*X;X:X:X:X:X%XJ.;.<.E.~.<X5XwXwXwXwXwXwXwXwX",
"6X6X6X6X6X6X6X6X6X8X8X|.%.J ( 1.H.OX,X:X:X:X*X+XH.^ y e x G x.d.d.d.d.a.B S V Z ^ 8.+X&X-X:X-X=XOX4.^ ..3.R.|.7XwXwXwXwXwXwXwXwX",
"6X6X6X6X6X6X6X6X6X8X8X|.$.J L ! -.J.%X,X;X-XoXq.;.*.^ ~ / X.H B n n B G | / / / *.2.0.XX&X:X*X@Xw.=.a T o.R.|.5XwXwXwXwXwXwXwXwX",
"6X6X6X6X6X6X6X6X8X8X8X|.T.T K i L 1..X+X%X@X0._ W =.8.8.4.:.| j f j x F >.8.8.1.;.-.=.8..X%XXXw.1.! 0 L $.~.1X5XwXwXwXwXwXwXwXwX",
"6X6X6X6X6X6X6X6X6X8X8X2X'.T. .J p ! -.1.2.2.Q i a =..XXX.XJ./ w < < w ~ 4.oXK.0.1.^ d W =.4.;.^ ! d J  .R. X3X8XwXwXwXwXwXwXwXwX",
"6X6X6X6X6X6X6X6X6X8X8X4X2X}.$.J 6 0 i a d d 9 + 8 ;.&X-X&XOX-.; X = ; Q K.-X@XL.2.R 3 9 i d i 9 0 J K $.].3X5XeXwXwXwXwXwXwXwXwX",
"6X6X6X6X6X6X6X6X6X8X8X5X4X2X'.$.T J 0 9 8 8 ; O ; W 0.w.P.8.R ; O + = a >.H.8.;.Q u = = 3 9 y 0 J  .T.).1X5X6XeXwXwXwXwXwXwXwXwX",
"6X6X6X6X6X6X6X6X6X8X8X8X0X6X2X{.R.( 6 ; = + O   + y E E E C 9 + O O + 8 a ~ R s y ; O O O + 3 p Y R.}.2X5X0XeXeXwXwXwXwXwXwXwXwX",
"6X6X6X6X6X6X6X6X6X8X8XqXeXeX5X4X}.o.7 * o       o = 9 9 9 8 = O   O O = ; 9 8 3 ; +       O 7 J o.'.3X7XqXeXeXeXeXwXwXwXwXwXwXwX",
"6X6X6X6X6X6X6X6X6X8X6XqXqXeXqX6X1X%.r - o         + = = = + o         X + = = + o o       O 6 K %.}.5XqXeXwXeXeXwXwXwXwXwXwXwXwX",
"6X6X6X6X6X6X6X6X6X8X8XqXeXwXeXwX4XT.r - *                                                 o 6 Y R.|.qXeXwXwXwXwXwXwXwXwXwXwXwXwX",
"6X6X6X6X6X6X6X6X6X8X8XqXeXwXwXwX4XT.r - o                                                   6 Y T.|.qXeXwXwXwXwXwXwXwXwXwXwXwXwX",
"6X6X6X6X6X6X6X6X6X8X6X0XqXeXeXeX3XT.r - o                                                 o 6 Y E.<XqXeXeXeXwXwXwXwXwXwXwXwXwXwX",
"6X6X6X6X6X6X6X6X6X8X8XqXeXeXeXeX4X'.o.J 7 o                                           O * - K %.'.2XqXeXeXeXwXwXwXwXwXwXwXwXwXwX",
"6X6X6X6X6X6X6X6X6X8X6XqXeXeXeXeX7X2X].$.J o O                                         * 7 J $.].2X5XeXeXeXwXwXwXwXwXwXwXwXwXwXwX",
"6X6X6X6X6X6X6X6X6X8X6X0XqXeXeXeXeX0X5X].O.7 - o   . @ @ @ @ @ @ @ @ @ @ @ @ . . . . O 7 J o._.3X0XqXeXeXeXeXwXwXwXwXwXwXwXwXwXwX",
"6X6X6X6X6X6X6X6X6X8X6XqXeXeXeXeXeXqX8X2X'.%.K - * 1 g k k k k k k k k k k k h h f 2 7 K %.].1X5XqXeXeXwXwXwXwXwXwXwXwXwXwXwXwXwX",
"6X6X6X6X6X6X6X6X6X8X6X0XeXeXeXeXeXeXeX8X5X2XT.r , z d.j.j.j.j.j.j.j.j.j.j.j.y.r.N m K $.}.5X6XqXeXeXeXwXwXwXwXwXwXwXwXwXwXwXwXwX",
"6X6X6X6X6X6X6X6X6X8X8XqXeXeXeXeXeXeXeXeXeX5XR.t 2 n z.v.v.v.v.v.v.v.v.v.v.b.j.y.a.m T T.1XqXeXeXeXeXwXwXwXwXwXwXwXwXwXwXwXwXwXwX",
"6X6X6X6X6X6X6X6X6X8X8XqXqXeXeXeXeXeXeXeXeX5X~.t 2 n c.n.v.n.n.n.n.n.v.m.n.v.j.s.a.' T T.1XeXeXeXeXeXwXwXwXwXwXwXwXwXwXwXwXwXwXwX",
"6X6X6X6X6X6X6X6X6X8X8XqXeXeXeXwXwXwXwXwXeX0X].Y P M g.k.j.j.z.j.j.j.j.j.k.k.f.p.i.{ @.).3XwXwXwXeXwXwXwXwXwXwXwXwXwXwXwXwXwXwXwX",
"6X6X6X6X6X6X6X6X6X8X8XqXqXeXwXwXwXeXwXwXeXqX3X].T.{ m b b b b b b b b b b b B m { Q.{.2X5XwXwXwXwXwXwXwXwXwXwXwXwXwXwXwXwXwXwXwX",
"6X6X6X6X6X6X6X6X6X8X6X8XeXwXwXwXeXeXeXeXeXeXeXeX2X%.7 * * * * * * * * * * * 6 K $.}.8XeXwXwXwXwXwXwXwXwXwXwXwXwXwXwXwXwXwXwXwXwX",
"6X6X6X6X6X6X6X6X6X8X6X8XeXwXwXwXeXeXeXeXeXeXeXeX5X{.%.o.$.o.o.o.o.o.$.o.o.$.T.R.].2XeXwXwXwXwXwXwXwXwXwXwXwXwXwXwXwXwXwXwXwXwXwX"
};
