/* XPM */
static char *_9f68cc3897849aee3a13b1d087eb48dYqZ9FW63mqRKp20s[] = {
/* columns rows colors chars-per-pixel */
"70 86 126 2 ",
"   c None",
".  c #000001",
"X  c #06030B",
"o  c #08050F",
"O  c #0B0614",
"+  c #0E0819",
"@  c #10091D",
"#  c #140B23",
"$  c #170D28",
"%  c #190E2D",
"&  c #1B0F30",
"*  c #1D1034",
"=  c #1F1238",
"-  c #22133C",
";  c #261643",
":  c #281647",
">  c #291748",
",  c #2C194E",
"<  c #2E1A52",
"1  c #311B57",
"2  c #331D5B",
"3  c #371F61",
"4  c #381F63",
"5  c #392066",
"6  c #3D226B",
"7  c #3F2370",
"8  c #4A1354",
"9  c #5E1E77",
"0  c #651C76",
"q  c #691A76",
"w  c #671F7F",
"e  c #6B1D7E",
"r  c #701C7D",
"t  c #412473",
"y  c #45277A",
"u  c #4D2479",
"i  c #47287E",
"p  c #48287F",
"a  c #572078",
"s  c #62217F",
"d  c #711C80",
"f  c #492982",
"g  c #4E2C8A",
"h  c #522782",
"j  c #5A2480",
"k  c #502D8F",
"l  c #532E93",
"z  c #553096",
"x  c #56319A",
"c  c #59329E",
"v  c #5C34A3",
"b  c #5F36A9",
"n  c #6136AC",
"m  c #6F37B6",
"M  c #673AB7",
"N  c #6A39B7",
"B  c #6A3BBA",
"V  c #7734B5",
"C  c #7435B5",
"Z  c #7435B5",
"A  c #7933B5",
"S  c #7A33B4",
"D  c #7B33B4",
"F  c #7A33B5",
"G  c #7F31B4",
"H  c #7C32B4",
"J  c #7D32B4",
"K  c #7E32B4",
"L  c #7F32B4",
"P  c #7D33B7",
"I  c #7834B5",
"U  c #7934B5",
"Y  c #7C33B4",
"T  c #7337B9",
"R  c #7636B8",
"E  c #7437B9",
"W  c #7A35B8",
"Q  c #7835B8",
"!  c #7038B9",
"~  c #7138B9",
"^  c #852FB3",
"/  c #872FB3",
"(  c #862FB3",
")  c #8F2BB2",
"_  c #8A2DB2",
"`  c #8B2DB2",
"'  c #882EB3",
"]  c #8A2EB2",
"[  c #8D2CB2",
"{  c #8C2DB2",
"}  c #8E2DB5",
"|  c #8D2EB5",
" . c #8E2EB5",
".. c #8C2DB2",
"X. c #9C27B0",
"o. c #9C27B0",
"O. c #912BB1",
"+. c #932AB1",
"@. c #902BB2",
"#. c #9529B1",
"$. c #9729B1",
"%. c #942AB1",
"&. c #952BB4",
"*. c #962BB4",
"=. c #942AB1",
"-. c #9828B0",
";. c #9828B1",
":. c #9A28B0",
">. c #9A29B3",
",. c #9B29B3",
"<. c #9E28B3",
"1. c #9B29B4",
"2. c #982AB4",
"3. c #9A2AB4",
"4. c #9A28B1",
"5. c #8230B3",
"6. c #8330B3",
"7. c #8430B3",
"8. c #8031B4",
"9. c #8131B4",
"0. c #8132B7",
"q. c #8431B7",
"w. c #8230B3",
"e. c #8830B6",
"r. c #8930B6",
"t. c #A129B6",
/* pixels */
"                                                                                                                                            ",
"                                                                                                                                            ",
"                                                                                                                                            ",
"                                                                                                                                            ",
"        . . . . . . . . . . . . . . . . . . . . . . . . . . . . . . . . . . . . . . . . . . . . . . . . . . . X . . . . . . . . . .         ",
"        . . O t 2 . . . . . . . . . . . . . # f ; . . . . . . . . . . . . . ; f # . . . . . . . . . . . . . 2 t o . . . . . . . . .         ",
"        . . O l y . . . X O . . . . . . . . & v < . . . O X . . . . . . . . < v % . . . O X . . . . . . . . y l O . . X + . . . . .         ",
"        . . . + O . . . t l O . . . . . . . X O X . . O l t . . . . . . . . X + X . . * x < . . . . . . . . O O . . . , v % . . . .         ",
"        . . . . . . . . 5 y o X & + . . . . . . . . . O y 5 . + & o . . . . . . . . . # f : . # % . . . . . . . . . . : f $ . * # .         ",
"        . . . . . . . . . X . * M 2 . . . . . . . . . . . . . 2 M & . . . . . . . . . . X . . f v + . . . . . . . . . . . . O v f .         ",
"        . . . . . . . . . . . @ 2 & . . . . . . . . . . . . . * 2 @ . . . . . . . . . . . . . : 1 o . . . . . . . . . . . . X 2 : .         ",
"        . . . . . . . . . . . . . . . . . . . . . . . . . . . . . . . . . . . . . . . . . . . . . . . . . . . . . . . . . . . . . .         ",
"        . . o t i f - . . o t 2 . . . . . . # y f y # . . # i - . . . . . . - f f 6 o . . - i # . . . . . . 2 f f 2 . . . 2 t o . .         ",
"        . o # z b n 1 . . O z y . . . . . o ; v b v & . . % v 1 . . . . . o 2 n n l + . . 1 v % . . . . X + i n n y . . . i z O . .         ",
"        . t l $ + + X . . . O O . . . . O k i @ + + X . . X + X . . . . * x 3 + + + . . . o + X . . . . , x - + + O . . . + O . . .         ",
"        . 5 y O . . . . # % . . . . . . O y 5 . . . . . $ # . . . . . . # g : . . . . X % + . . . . . . : g $ . . . . + % o . . . .         ",
"        . . X . . . . . f v + . . . . . . . X . . . . + x f X . . . . . . X . . . . . * M 2 . . . . . . . X . . . . . 2 M * . . . .         ",
"        . . . . . . . . > 2 X . . . . . . . . . . . . X 2 > . . . . . . . . . . . . . @ 3 * . . . . . . . . . . . . . * 2 @ . . . .         ",
"        . . . . . . . . . . . . . . . . . . . . . . X . . . . . . . . . . . . . . . . . . . . . . . . . . . . . . . . . . . . . . .         ",
"        . . . . . . . . . . . . . . . 8 q q 9 y 9 q u y y y y y y i y 0 q q a i 0 0 y y y y y y y y 2 . . . . . . . . . . . . . . .         ",
"        . . . o X . . . . . . . . . X d t.1. .m 7.2.W B B M B B N M B 2.1.1.7.~  .@.E B B B B B B B f . . . X O . . . . . . . . . .         ",
"        . . + g t . . . . . . . . . . r 1.Z U &.5.m ' @.N M M M N M m 2.[ m 8.#.U Z @.' M M M M B B f X . . 7 g O . . . . . . . . .         ",
"        . . o i 5 . . . @ # . . . . X w @.Z U @.U N 7.[ Z ~ N M M M m _ _ Z 8.[ Z N  ._ C m M M M B f . . . 6 f O . . O % X . . . .         ",
"        . . . X X . . . f v + . . . . f ~ #.[ N M M N m #.[ M M M M M B U X.8.N M M N Z 2.J M N M B f . . . . X . . . 1 M * . . . .         ",
"        . . . . . . . . > 2 X + , $ . j 0.7.J N M M Z 8.7.7.J Z M M M Y 5.7.U M M N S 5.7.7.J m M B h . . . . . . . . * 5 @ X : - .         ",
"        . . . . . . . . . . . * M 2 . r 2.m M M M M [ 2.m Z o.5.M M m #.[ M M M M m %.[ M 5.o.Z M m f . . . . . . . . . . . O v f .         ",
"        . . . . . . . . . . . O ; # X a P ' 8.M S [ J J ^ ^ S m M 5._ S J e.U M 5.^ S J _ 5.U N B r.j X . . . . . . . . . . X = % .         ",
"        . . . o o X X . . . o X . . . f m @.[ N 5.2.Z m #._ M N m e.@.m C #.5.m { %.~ U :.J M N ~ *.e . . . X O o X . . . X X . . .         ",
"        . . O g x x , . . O g 6 . . X f B m A #.5.m _ @.Z m M J %.Y ~ M N m 5.+.U Z @._ m N N e.@.E h . . . 7 x x 6 . . . t g O . .         ",
"        . @ = f l l > . . O f 6 . . . f B M Z  .5.Z ^ _ N N Z 5.@.Z M M N M S +.J Z [ 7.M m C _ [ m f X O % t l l 6 . . . 6 i O . .         ",
"        . f v @ X X . . . . X . . . . f B M M N 5.:.U N M Z :.5.M M N M M M M M [ #.m M M J :.Z M B f . 1 n - . o X . . . . X . . .         ",
"        . , 2 X . . . . * : X . . . . f B M M M Z ^ m M M Z o.5.M M M M M M M M J 5.N N M 5.,.Z M B f . * 6 # . . . . # , + . . . .         ",
"        . . . . . . . . g v + . . . . f B M M M M M M M M C o.5.M M B M M M M M M M M M M 5.o.C N B f . . . . . . . . 2 M * . . . .         ",
"        . . . . . . . . & - . . . . X f B M M M M M M M M Z o.5.M M M M M M M M M M M M M 5.o.C M M i X . . . . . . . # ; O . . . .         ",
"        . . . . . . . . . . . . . . . h B m N N N N M M M C %.5.M M M M N N N M N N M M M 8.2.C M B f . . . . . . . . . . . . . . .         ",
"        . . . . . . . . . . . . . . X s %.@.7.M Y %.~ M M m ~ m M M m [ %.%.0.M 7.[ m M M m ~ N M B i X . . . . . . . . . . . . . .         ",
"        . . . # + . . . . . . . . . . r ,.%.e.Z 7.%.Y ~ M M M M M M m %.o.%.7.Z ] { C Z M M M M M B f . . . + # . . . . . . . . . .         ",
"        . . + x i . . . . . . . . . X r $.m S :.5.M { %.m M M M M M m %.r.N 5.:.S N %.{ M M M M M B f . . . f x + . . . . . . . . .         ",
"        . . X 5 < . . . * : X . . . . s r.Y J 7.C M Y e.5.C M M M M m 5.7.Y 5.7.~ N 7.7.Y Z M M M B f X . . < 5 X . . # : + . . . .         ",
"        . . . . . . . . f v O . . . . f m :.{ N N M N N %.[ M N M M M M C o.5.M M M M C :.5.M M M B f . . . . . . . . 2 M * . . . .         ",
"        . . . . . . . . * - X @ 7 - . j  .P Z M M M J e.J J _ C M M N e.7.J C M N m 5.7.S 5.e.Z M B f X . . . . . . . # : O X 5 < .         ",
"        . . . . . . . . . . . & n 1 . d 2.~ M N N N { %.N S :.5.M M ~ %.e.N M M N N %.{ M 5.:.C M m f . . . . . . . . . . . + x f .         ",
"        . . . . . . . . . . . X # O . h Z [ 7.N Y +.S C +.] C N N 7.+.Z S +.S N 7.[ C S +.5.Z N N | e . . . . . . . . . . . . # + .         ",
"        . . . @ # # O . . . # + . . . f m [ _ ~ 5.+.S C { 7.M N Z ] { N C +.5.~ e.+.C S +.Y M N R  .e . . . + # # + . . . + # . . .         ",
"        . . + x n M 1 . . O x f . . . f B B U 2.5.N { %.~ M M 5.:.C N M M M 7.:.S N %.{ N N N { #.~ f . . . i M M i . . . f x O . .         ",
"        . * > 6 t t = . . o 5 < . . X f B M Z ^ 5.Y 7.7.N m S 5.7.Z M M M M U e.5.J e.Y M C Y 7.7.m f X # > 5 t t < . . . < 5 O . .         ",
"        . f v + . . . . . . . . . . . f B M M M 5.o.C M M C o.5.M M M M M M M N { :.N M M 5.:.C M B f . 2 M * . . . . . . . . . . .         ",
"        . * ; X . . . . , 5 X . . . . f B M M M ~ Y m M M C o.5.M M M M M M M M C S N M M 5.o.C M B f . # : + . . . . - 6 @ . . . .         ",
"        . . . . . . . . f x + . . . . f B N M M M M M M M C o.5.M M M M M M M M M M M M M 5.o.S M B f . . . . . . . . 1 n & . . . .         ",
"        . . . . . . . . + # . . . . . f B M M M M M M M M C o.5.M M M M M M M M M M M M M 5.o.C M B f X . . . . . . . O $ o . . . .         ",
"        . . . . . . . . . . . . . . . h ~ Z m M m ~ N M M ~ @.J M M M m ~ ~ N M m ~ M M M J @.~ M B f . . . . . . . . . . . . . . .         ",
"        . . . . . . . . . . . . . . X e 3.2._ M J #.R M M N N N M M m +.:.:.5.M _ +.N M M N N N M B f . . . . . . . . . . . . . . .         ",
"        . . . - & . . . . . . . . . . r ,.[ 7.Y 5._ 5.U N M B M M M m %.#._ 5.S 7._ S C M M M M M B f . . . % - X . . . . . . . . .         ",
"        . . + v g . . . . . . . . . X r 2.m Z o.5.N [ #.N M M M M M m $.[ N 5.o.C m :.[ N N M M M B f . . X g v O . . . . . . . . .         ",
"        . . X : * . . . , 3 X . . . X a 0.7.7.P ~ M Z J 7.J N M M M M P 5.7.5.P N N S J 7.C M M B B f X . . * : X . . * 6 @ . . . .         ",
"        . . . . . . . . f x + . X . . f ~ #._ M M M N m #.[ N M M M M M C :.J M M M N U :.5.M N M B f . . . . . . . . 2 n * . X X .         ",
"        . . . . . . . . @ # . % k : . s @.U m M M M 7.[ Z S @.Y M M N { ] C N M M m _ _ ~ 5.@.C M N i X . . . . . . . O $ X O i 5 .         ",
"        . . . . . . . . . . . % x , . e *.Z m M N C e.@.Z S %.Y M m C { ] C N M m Z @._ N 5.+.C M T h . . . . . . . . . . . O g t .         ",
"        . . . . . . . . . . . . O X . f ~ #._ N 5.%.S m %.[ m M M r.%.Z S :.J M _ @.~ Z :.5.N M N &.r X . . . . . . . . . . . X X .         ",
"        . . X * - ; # . . X - % . . . f B r.7.U 5.{ Y S e.5.M m S 7.e.N ~ ] 5.S 7._ J J ] S M C P ' j . . . % ; ; % . . . % = X . .         ",
"        . . O v M N 2 . . O v f . . . f B M C o.5.M { :.m M M 5.o.Z M M M M 5.:.Z m #.[ N N N [ 2.m f X . . f B B f . . . f v + . .         ",
"        . > 6 < < < $ . . X > - . . X f B M m Y 5.7.5.S N ~ 7.5.8.m M M M M C J 5.5.8.U M Z 7.5.S m f . & 5 1 < < - . . . - : o . .         ",
"        . f v + . . . . . X . . . . . f B M M M J :.C M M Z o.5.M M M M M M M N _ #.N M M 5.o.Z M B f . 2 M * . . . . . X . . . . .         ",
"        . # # . . . . . 6 y O . . . X f B M M M m Z N M M Z o.5.M M M M M M M M m Z N M M 5.2.E M B f . O % X . . . . : g $ . . . .         ",
"        . . . . . . . . t g O . . . . f B M M M M M M M M Z ,.7.M M M M M M M M M M M M M 8.,.U M B f . . . . . . . . , x % . . . .         ",
"        . . . . . . . . X O . . . . . f B N B B B B B M B E t.7.B B B B B B B B B B M B B 7.,.W B B g . . . . . . . . X O . . . . .         ",
"        . . . . . . . . . . . . . . X 1 i y y y i i y i y a q a i y y y y i y y y y i y i a q u y i 2 . . . . . . . . . . . . . . .         ",
"        . . . . . . . . . . . . . . . . . . . . . . . . . . . . . . . . . . . . . X . . . . . . . . . . . . . . . . . . . . . . . .         ",
"        . . X 2 > . . . . . . . . . . . . . @ 4 * . . . . . . . . . . . . . * 4 + . . . . . . . . . . . . . > 2 X . . . . . . . . .         ",
"        . . + v f . . . X . . . . . . . . . & M 2 . . . X . . . . . . . . . 2 n * . . . X . . . . . . . . . f v + . . . X . . . . .         ",
"        . . . $ # . . . 3 y o . . . . . . . X % + . . O i 5 . . . . . . . . + % X . . $ g ; . . . . . . . . # # . . . : g # . . . .         ",
"        . . . . . . . . t l O X + X . . . . . . . . . O l t . o + X . . . . . . . . . % c , . O + . . . . . . . . . . < x % . + O .         ",
"        . . . . . . . . X O . & v 1 . . . . . . . . . . O X . < v * . . . . . . . . . . O X . y z O . . . . . . . . . X O . O z y .         ",
"        . . . . . . . . . . . # i - . . . . . . . . . . . . . ; i # . . . . . . . . . . . . . 2 t o . . . . . . . . . . . . O 6 2 .         ",
"        . . . . . . . . . . . . . . . . . . . . . . . . . . . . . . . . . . . . . . . . . . . . . . . . . . . . . . . . . . . . . .         ",
"        . . o 1 3 3 % . . X 1 : . . . . . . + 2 3 2 @ . . @ 3 & . . . . . . % 3 3 1 X . . & 2 @ . . . . . . : 3 3 : . . . : 1 X . .         ",
"        . . @ x M M 2 . . + v f X . . . . . = M M n * . . & M 2 . . . . . . 2 M M x O . . 2 M * . . . . . X f M M f . . X f v + . .         ",
"        . 3 i - & * + . . . % # . . . . o y 7 * & & o . . o & O . . . . $ g 2 % * $ X . . + % o . . . . ; g > * * # . . . # % . . .         ",
"        . t l O . . . . O + . . . . . . O l t . . . . . + O . . . . . . % v < . . . . X + X . . . . . . , v % . . . . X + X . . . .         ",
"        . O O . . . . . t z O . . . . . . O O . . . . O l y . . . . . . . O X . . . . % v < . . . . . . X O . . . . . < v % . . . .         ",
"        . . . . . . . X 2 t O . . . . . . . . . . . . o t 3 . . . . . . . . . . . . . # f ; . . . . . . . . . . . . . ; f # . . . .         ",
"        . . . . . . . . . . . . . . . . . . . . . . . . . . . . . . . . . . . . . . . . . . . . . . . . . . . . . . . . . . . . . .         ",
"                                                                                                                                            ",
"                                                                                                                                            ",
"                                                                                                                                            ",
"                                                                                                                                            "
};
