/* XPM */
static char *result[] = {
/* columns rows colors chars-per-pixel */
"64 64 236 2 ",
"   c #000002",
".  c #0A0603",
"X  c #05040B",
"o  c #09060D",
"O  c #0C090C",
"+  c #0E0904",
"@  c #140D05",
"#  c #130D0A",
"$  c #180F0B",
"%  c #1B1204",
"&  c #1C1209",
"*  c #171009",
"=  c #050310",
"-  c #090612",
";  c #0C0915",
":  c #0E0A19",
">  c #140D15",
",  c #100B1B",
"<  c #180F17",
"1  c #121114",
"2  c #19151A",
"3  c #2A1B05",
"4  c #251807",
"5  c #311D06",
"6  c #271A14",
"7  c #352104",
"8  c #3B2405",
"9  c #39250B",
"0  c #362415",
"q  c #140E22",
"w  c #171024",
"e  c #1B132C",
"r  c #1C1524",
"t  c #1E1533",
"y  c #201633",
"u  c #221835",
"i  c #251A3B",
"p  c #2A1E36",
"a  c #261C2A",
"s  c #1F2021",
"d  c #242429",
"f  c #343032",
"g  c #442A02",
"h  c #492C04",
"j  c #432A09",
"k  c #532D07",
"l  c #4E3103",
"z  c #4C320C",
"x  c #543401",
"c  c #593601",
"v  c #5D3901",
"b  c #59380B",
"n  c #583C16",
"m  c #4A3317",
"M  c #653706",
"N  c #783908",
"B  c #683810",
"V  c #462929",
"C  c #5D4217",
"Z  c #6B4204",
"A  c #674719",
"S  c #784B19",
"D  c #7D5627",
"F  c #7E6135",
"G  c #291D40",
"H  c #2E2246",
"J  c #39314C",
"K  c #403655",
"L  c #514C4F",
"P  c #544E63",
"I  c #6E6E71",
"U  c #883907",
"Y  c #933904",
"T  c #9B3A04",
"R  c #973B08",
"E  c #883F10",
"W  c #A83C03",
"Q  c #B43D02",
"!  c #BC3E02",
"~  c #C13F02",
"^  c #994606",
"/  c #8B4516",
"(  c #944413",
")  c #984917",
"_  c #8B5614",
"`  c #A64707",
"'  c #B44307",
"]  c #A34614",
"[  c #A94B17",
"{  c #B84C17",
"}  c #B6541D",
"|  c #A45814",
" . c #90631C",
".. c #915626",
"X. c #B85926",
"o. c #A75B2D",
"O. c #9A6D25",
"+. c #936F37",
"@. c #AB7B2D",
"#. c #A3742A",
"$. c #AD6238",
"%. c #B96639",
"&. c #AC7B32",
"*. c #B77A33",
"=. c #B66D28",
"-. c #B2641E",
";. c #CB4303",
":. c #C54509",
">. c #D54302",
",. c #D94704",
"<. c #C54F17",
"1. c #D84D11",
"2. c #C5511A",
"3. c #CA5119",
"4. c #C85616",
"5. c #D4551B",
"6. c #DB571B",
"7. c #E34501",
"8. c #EA4804",
"9. c #F24600",
"0. c #F94700",
"q. c #F54A04",
"w. c #FE4901",
"e. c #F84E0A",
"r. c #FD510C",
"t. c #E4591D",
"y. c #ED5B1F",
"u. c #E55618",
"i. c #FE5512",
"p. c #F25D1F",
"a. c #FE5C1C",
"s. c #F95614",
"d. c #E14F11",
"f. c #C85B26",
"g. c #D65C25",
"h. c #E75D23",
"j. c #F55E21",
"k. c #FB5F20",
"l. c #C76626",
"z. c #C86737",
"x. c #CC7638",
"c. c #D3753F",
"v. c #D2712F",
"b. c #FF6122",
"n. c #FE6629",
"m. c #FF6A2D",
"M. c #F7672C",
"N. c #FF6D32",
"B. c #F16E35",
"V. c #FF7136",
"C. c #FF733B",
"Z. c #F9743B",
"A. c #EA6B33",
"S. c #977949",
"D. c #8B734E",
"F. c #AE734B",
"G. c #DA7947",
"H. c #D57A4F",
"J. c #E77A4A",
"K. c #FF7A43",
"L. c #FF7E4A",
"P. c #F97540",
"I. c #B68436",
"U. c #CD8C3D",
"Y. c #A98B5B",
"T. c #B48C4C",
"R. c #B59869",
"E. c #AF9364",
"W. c #CD8842",
"Q. c #CA9545",
"!. c #D79845",
"~. c #C89A54",
"^. c #DA9457",
"/. c #FF814B",
"(. c #E88356",
"). c #FF8454",
"_. c #FE8758",
"`. c #FF8A5A",
"'. c #F88656",
"]. c #FF925D",
"[. c #DAA34D",
"{. c #DEA550",
"}. c #E4AC54",
"|. c #E3AE5A",
" X c #E9B157",
".X c #EDB55B",
"XX c #E6B15B",
"oX c #F3B95E",
"OX c #FE9364",
"+X c #FA956A",
"@X c #F7956A",
"#X c #D5A763",
"$X c #CAA974",
"%X c #EBB969",
"&X c #F4BC62",
"*X c #F8BE62",
"=X c #EABC74",
"-X c #F1AA6C",
";X c #D48661",
":X c #FCC266",
">X c #FFC56A",
",X c #FAC56F",
"<X c #EEC27B",
"1X c #FFC973",
"2X c #FECC7C",
"3X c #F5C477",
"4X c #9E948A",
"5X c #C7AD82",
"6X c #D5BC93",
"7X c #DABA86",
"8X c #FDA982",
"9X c #F0BB90",
"0X c #F4C985",
"qX c #FECF81",
"wX c #F3CB8A",
"eX c #FFD085",
"rX c #FFD38D",
"tX c #FFD591",
"yX c #FFD99B",
"uX c #F5D39C",
"iX c #EAC994",
"pX c #DFCAA8",
"aX c #FFDCA3",
"sX c #FEDEAA",
"dX c #F6D7A4",
"fX c #F9DFB3",
"gX c #EECDAA",
"hX c #FFE0AE",
"jX c #FFE2B4",
"kX c #FFE6BC",
"lX c #DBC49F",
"zX c #FFE9C5",
"xX c #FFECCD",
"cX c #F8E4C3",
"vX c #FFEED2",
"bX c #FFF2DD",
/* pixels */
"                                                                                                                                ",
"                                                                                                                                ",
"                          .     .                                                                             .                 ",
"                        3 ] %     .               X     X                 o X X X     X           X             X o o X         ",
"        X X X X     8 % 4.2.5 S %.S       X     X X X X X X X X       X q e t w - X X X X X X X X X X X X       w y y e o       ",
"        X X X X . % ` ] k.v.J.OXx.5 X   . . . X X X = = X X X X X     X e i G t ; X X X X X X o = & k M g .   X e G G u ;       ",
"        X X X X   k p.p.K.`.+X(.#X#X+.9 @ . X   = = = = X X X X     X X e G i t ; = X X X X X o k ;.>.:.e.` 5   e G i i ;       ",
"          X X . 4 N i.w.m.L.B.~.tXtXtXiXE.C % X X = = X X X X X o X = - w t t e ; X X X X X . M 7.;.' ` 7.Y M 4 e p i y o       ",
"          X X o m ^ 8.w.i.b.6.*.+.~.tXtXfXcXY.0 X X X X .     X e u u y w q q q - = o = X o M 7.~ u.R Y Y 7.N M r q q q X       ",
"              X u :.0.q.q.a.a.( z _ =XtXyXzXxX5X3 X X X X     . u G G i w , : : - X o o X g ,.>.k.6.M W w.W ~ W 0 , , ; X       ",
"              o y V ^ ^  .' w.q.5.A.v.#XtXsXvXxXS.+ X       . X u G G i w , , : - X = o # ^ e.5.k.! Y 0.9.! T U h < q ;         ",
"          X X o a D O._ ^ ^ w.a.b.N.b.l.0XyXvXvXlX8 X X X X X ; u i i u w , , : - o = o h u.2.a.q.U 9.7.W Q 7.W k , : : X       ",
"              + Z Z M s.q.w.w.i.m.`.j.-.0XtXkXvXkXF X ; t H i i w w q q , , , : = ; X # ] t.t.r.W 8.~ W e.w.9.8.N # = X         ",
"              g 9 < B a.m.n.a.6.m.n.6.~.tXrXjXxXjXY.% O G J J H w , , , , , : : - 2 X h t.2.i.q.~ e.F.n.q.! T Q U 7 X X X       ",
"              X , , z p.C.Z.k.| *.} -.=XtXtXaXjXaX$X3 ; t J P H q : , , , , , : o d % ^ y.d.i.a.r.L.OX{ ' d.w.>.Y % X X         ",
"              X : , 2 _ 4.-.I. XyXsXwXtXtXtXtXyXyX$X3 o t P J f , > : ; ; , w a d L S M.h.a.b.C.gX@X[ 8.a.r.0.,.Y c g O         ",
"                ; , , L O.&X>X>XeXtXtXtXtXtXtXtXkX$Xf f P 4XP J 2 + o o o = = < b f.y.j.K.L.L.K.9XJ.a.k.a.! Q ~ ~ R U g .       ",
"                , r f 5XwX2X>X>X2XtXtXrXtXtXtXhXkX+.@ X X L 1 2 2 1 X   X $ b f.M.N.J.H.f.{ E R k.k.k.5.3.q.e.W U R W N         ",
"        .       ; : z 7X&X>X:X>X1XtXtXtXaXtXaXkXtX..X   X L X X O . . 4 B X.L.G.z.z.z.X./ F F.G.L.N.k.k.5.W E W Q U N j         ",
"                o O Y.<X&X>X>X>X1XrXyXzXkXaXkXtX1X#.@ X X o . 3 l M ^ 3.M.v.H.@XOX+X@X`.J.G.z.2.2.3.5.] W t.k.e.7.8.T #         ",
"        X X X X O 8 $XoX:X>X>XeX1XqXyXtXyXhXrX>X:X.XA 7 h b S o.$.[ X.K.J.L.+XP.g.X.X.X.g.h.h.h.j.y.h.2.] { Q W W U k O         ",
"        X X X X   C tX:X:X>X2X2XtXeXtXtXtXtX2X>X{.G.'.'.L.8X-XC.b.b.2.J.L._.8XJ.J.OX_.L.K.C.n.j.3.R ) ) E ~ w.w.9.~ M   X       ",
"        X X X X   S.<X*X>X>X2X2XtXtXtXtXtXrX1X}.G._.L.K.N.N.OXb.6.[ E z.J.`.`.P.V.n.n.K._.`.V.k.j.3.f.h.w.w.w.q.~ ~ h X         ",
"      X   X X X   Y.3XoX2X>X>XrXtXtXtXtXtXrX*XU._._.L.L.K.N.N.t.5.y.j.t.) $.H.z.J.K.P.N._.L.k.V.P.N.P.[ ~ w.w.N._.<.z .         ",
"        . X . X * Y.0XoX>X2X>X2XtXtXtXtXtXrX&Xc._.).C.m.b.b.b.b.k.k.k.k.k.) P.).H.$.J._.L.$...R R { '.C.f.u.r.K.8XH.S           ",
"        .   . # +.cX0X>X>X2X2X1XqXtXtXtXtXrX:XW._.).L.L.K.K.N.n.k.k.k.k.k.] k.m.L.L.%.%.$.[ } ~ 1.:.o.:.w.0.w.N.n.' 3           ",
"          . X z fXkXwX:X>X>X2XtXrXrXtXtXtXrX1X{.G._.P.b.a.b.b.j.3.<.k.h.{ j.k.k.k.N.`.F.J.N.k.j.:.R f.E 8.q.~ w.,.8             ",
"        X X . S.vX0XuXoX>X>X>X2XtXtXtXtXtXtXqX>XW._._.V.b.b.b.b.k.5.E E k.k.k.k.k.n.+X8X$._.K.k.j.2.B T 0.w.W >.` @ X           ",
"        X X 1 5XbX0XaX X:X>X>X1XrXtXtXtXtXtXtX1X!.(._._.L.V.b.C.C.k.k.3.E <.{ 3.h.k.V.N.g.J.`.N.e.~ T ~ Q ~ ,.Q M ; ; ;         ",
"        X X f $XvXhX1X3XoX>X>X>X2XtXyXtXtXtXtXrX%Xc._./.).OX).L.C.b.k.b.3.[ k.h.3.[ { k.B.z.k.~ Y T Q Q 0.W ~ ' 6 , , ; X       ",
"        X X 2 Y.uXxX0X>X>X>X>X>X1X1XeXkXhXaXyXtXrX#XJ.).m.N.B.Z.b.b.k.{ E p.k.k.k.k.j.R 6.1.i.i.6.7.w.Q W ! W N e , , :         ",
"          X f F cXuXkX,X>X>X>X2X2X1X1XaXxXkXyXtXtXrXW.)./.m.6.{ 5.5.<.5.t.3.5.3.g.k.k.M.o.J.L.N.q.Q Q 0.Y ! B p w , , ; X       ",
"          # d z pXjXhXwX>X>X>X2XtXtXtXtXyXtXtXtXtX3Xl.n.V./.V.] p.b.b.b.j.a.b.b.3.] ) $.$.Z.r.].].w.Y 8.U N 2 q ; X X X         ",
"          s I L R.vXdXdX3X:X>X>X1XeXtXrXtXtXtXtXtX[.%.p.a.b.b.h.) b.t.4.[ y.b.b.b.C.o.).b.n.i.m./.w.Y 1._ 0 , , o X X X         ",
"            1 2 C lXvXwX<X1X1X>X>X>X1X2XrXrXtXrXtXQ.K.z.5.b.a.k.( b.C.K.5.N ( [ } _ :.r.9.,.U.U.U.l.*.[.lXn : : o X X X         ",
"              X s  .iXzX<X:X>X2XeX2X1X>X>X1X2X2XrXXX6.N.A.X.} { 2.G.).C.a.6.6.[ | { v.v.!.oX:X:X*X>X>X2XfX+.< ; X X X X         ",
"        X X X X : 0 I.=XjX<X.X>X1XeXtXtXtXtXrXtXtXeXW.h.b.j.y.p.a.E ( 6.j.{ #.{.}. X3X:X>X1X2X2X1X1X2X2XjXE.* X X X X X         ",
"        X X X X X X g ~.%X<X%X.X>X>X1XeXrXtXtXtXtXtXeX.XU.U.@.I.&._ 4.)  .T. X.X,X2XuXrXeX1X1XtXtXhXrXhXvXR.% X X X X X X       ",
"        X X X X X X o C 6X<XXXXX&XrX2X2XeXrXtXrXtXtXtXrXeX2X2X2X2X3X=X&X>X>X1X1XeXeXeX2XtXtXyXyXrXrXhXxXvXR.% X X X X X         ",
"        X o X X X X X O C 6XfX<X3XeXeXtXtXtXtXtXtXtXtXtXtXrXrXtXtXtXtXaXtXtXtXtXtXtXtXtXtXtXtXrXtXhXzXvXvXY.@ X X X X X         ",
"        X X X X 1 = X X = 0 Y.lXvXfX2X1X1X2XrXrXrXrXtXrXtXtXtXtXtXaXyXyXjXaXtXtXtXtXtXtXtXtXtXyXkXvXvXvXcXC X   X X X X X       ",
"        X X X X X = ; f d = O 3 D.E.6XgXrX,X>X>X>X&X X~.eXtXtXtXtXyXkXyXjXjXhXtXtXtXtXtXrXrXyXzXvXvXvXvXR.4   X X X X X         ",
"        X X X X X X - I P ; X X f O 3 7 x O.I.I.I.I.I. .,XtXtXtXtXtXsXjXzXkXyXtXtXtXtXtXrXhXzXzXvXvXxX7Xm O X X X X X X         ",
"        X X X X X X X o o o X X s X X X j  X:X*X>X>X1XO.:XeXtXtXtXtXyXaXyXtXtXtXtXtXtXyXhXhXhXjXkXzXpXC O X X X X X = X         ",
"        X     X X   X   X X X X o X X o 9 I.*X>X>X:X>XO.>XeXtXtXtXtXtXtXtXtXtXtXtXtXtXtXtXyXtXyXjX6Xn . e u i y q ; ; ;         ",
"                  X   X X X ; o X X o 1 6 I.}. X&X*X>XT.zXhXtXtXtXtXtXtXtXtXtXtXtXtXtXtXtXtXhXpXY.3   X i H H G w , , , X       ",
"                . .   X X X o o X X o o . C [.3XwX3X,XT.jXtXtXtXtXtXtXtXrXtXsXaXaXrXtXyXiX5X+.9       X i G G G w q , ;         ",
"        X X O X X X O o = o X o X X X . . @ D =XuX<XoXO.I.I.1XtXtXtXtXqXeXtXtXtX1X#X#.A j 4 X X X     X y i G i q ; : ; X       ",
"      X w e e e e e e e : ; ; : o X X X X   * C T. XoXI.S I.[.>XtXtXtX>XrXeX2X>X@.0 > ; = X X X X X X X : , 1 : ; o X o X       ",
"      o t H i H i G G i q q q ; - X X X .       3 S Q.U.I.:XO.[.1XtX2X>X2X>X>XQ.0 : : , - X X X X X X X .   X X X X X X         ",
"      o t i G G G G G i w , , : - X X X .   . X X = 8 O.U.[.@. .:X1X>X:X1X*X XS w , , : = X X X X X X X X X X X X X X .         ",
"      X t i i i i i i u q , , : X X X X . X . X X = C +.c 3 5 O.{. X XoX X[.D p q , , , - X = = X X X X o X X X X X X           ",
"      X X ; : : q q q q , , , : - = X X . . + . ; 6 A b l o X * Z #.U.U.@.b r w , , , , : : : : o X X X X X X X = X X X         ",
"        X X X X : , : , , , , : - = ; l v x x l l z g l 8 X X X   8 g Z 6 w q , , , , , : : , : - X = X X = X X X X = X X       ",
"        X X X - : : , , , : , : - = # 7 c Z M c x c 9 0 g 8 X X + D C g < , q , , , , , q : q ; - X X X X X X = X = X X         ",
"        X X X X : : : : , , , : 1 g v h 5 4 7 Z z 1 1 1 1 & 4 5 g C 8 x > q , , , , , , : : : : - X o X = o = X X X X X         ",
"      X X X X X = - - - , , , : 4 4 o X X * c 3 O * 8 x Z v l l g 8 g v j 1 : : , , , , , , : : : : : ; = X X X X X X X         ",
"        X X O X X X X X : , , : - o o o X * * X + 7 x Z v c x v 8 Z 8 7 z v 5 ; : , : , , : q : : , : : o X X X X X X X         ",
"          X X X X X X = : , : : o X X X X X & 8 8 3 @ + X * c c 7 .   X = : 6 , , , , , , q : : : : , : - X X X X X X X         ",
"        . X X X X X X X ; ; : ; X X X X X X O O X X   X 4 c 7 o . .   . - ; - ; ; ; > , : ; : : : : : : X X X X X X X X         ",
"            X     X     X   X     X     X             % x .               X . X   X X   o   X   X X   X   X     X               ",
"                                                    . x .                                                                       ",
"                                                    .                                                                           ",
"                                                                                                                                "
};
