/* XPM */
static char *afde13a4b7a94445c222e0e79b23d67emBPytv7jgOknd3pC[] = {
/* columns rows colors chars-per-pixel */
"70 41 214 2 ",
"   c None",
".  c #AD5B3F",
"X  c #AB5C3F",
"o  c #9F643D",
"O  c #BC6B2A",
"+  c #AB7E21",
"@  c #A2623D",
"#  c #A0653D",
"$  c #A2673F",
"%  c #DA3D47",
"&  c #DD3C47",
"*  c #EF2F4A",
"=  c #FD264C",
"-  c #E63549",
";  c #ED314A",
":  c #A26840",
">  c #A46941",
",  c #A46A41",
"<  c #A56B42",
"1  c #A56C42",
"2  c #A66C43",
"3  c #A66D44",
"4  c #A76D44",
"5  c #AB7247",
"6  c #AD754A",
"7  c #AE764B",
"8  c #B1794D",
"9  c #B37C4E",
"0  c #C24D43",
"q  c #C44C43",
"w  c #D24245",
"e  c #D34245",
"r  c #0DBC17",
"t  c #00BB1A",
"y  c #01BB1A",
"u  c #01BB1B",
"i  c #05BB19",
"p  c #02BB1C",
"a  c #02BC1C",
"s  c #03BC1D",
"d  c #04BC1E",
"f  c #08BB18",
"g  c #0CBC1C",
"h  c #11BC16",
"j  c #16BC15",
"k  c #1FBC13",
"l  c #3CBD0C",
"z  c #27BD11",
"x  c #2CBD10",
"c  c #2DBD10",
"v  c #08BD22",
"b  c #0ABE23",
"n  c #0CBE25",
"m  c #0DBF26",
"M  c #0EBF26",
"N  c #0FBF28",
"B  c #12BE22",
"V  c #43BE0B",
"C  c #4ABE09",
"Z  c #52BE07",
"A  c #58BE05",
"S  c #7DAF08",
"D  c #60BF03",
"F  c #65BF02",
"G  c #6DBF00",
"H  c #6DBF01",
"J  c #6EBF01",
"K  c #70BE03",
"L  c #78BC0B",
"P  c #78BC0C",
"I  c #7ABC0E",
"U  c #7EBB11",
"Y  c #16C12E",
"T  c #17C12F",
"R  c #20C437",
"E  c #23C439",
"W  c #23C53A",
"Q  c #2AC63D",
"!  c #29C63F",
"~  c #2DC73E",
"^  c #6EC003",
"/  c #6FC003",
"(  c #70C005",
")  c #70C006",
"_  c #71C107",
"`  c #72C109",
"'  c #73C20C",
"]  c #6FC51D",
"[  c #77C311",
"{  c #77C412",
"}  c #79C416",
"|  c #7AC518",
" . c #7BC519",
".. c #7CC61C",
"X. c #7DC61D",
"o. c #7EC71D",
"O. c #7EC71F",
"+. c #7FC722",
"@. c #2FC741",
"#. c #35C946",
"$. c #3ECA45",
"%. c #38CA4B",
"&. c #4BCE57",
"*. c #4CCF59",
"=. c #56D054",
"-. c #55D15D",
";. c #69D45B",
":. c #4DD060",
">. c #4FD061",
",. c #5BD262",
"<. c #5CD367",
"1. c #7FD966",
"2. c #61D571",
"3. c #65D674",
"4. c #A0891B",
"5. c #81AA0B",
"6. c #83A80C",
"7. c #87B91B",
"8. c #8BB81F",
"9. c #91B625",
"0. c #97B52C",
"q. c #9CB331",
"w. c #A6B13C",
"e. c #80C823",
"r. c #82C826",
"t. c #85CA2B",
"y. c #86CA2C",
"u. c #86CA2D",
"i. c #88CB30",
"p. c #89CC31",
"a. c #8ACC34",
"s. c #82CD3C",
"d. c #8ECE3C",
"f. c #B78052",
"g. c #B88153",
"h. c #BB8556",
"j. c #BC8656",
"k. c #BE8858",
"l. c #BF8A59",
"z. c #ACAF42",
"x. c #AFAF44",
"c. c #B1AE47",
"v. c #B4AD4A",
"b. c #C08B5A",
"n. c #C08C5A",
"m. c #C18C5B",
"M. c #C28D5B",
"N. c #C38E5C",
"B. c #C6925F",
"V. c #C6A95D",
"C. c #C79460",
"Z. c #C79461",
"A. c #C89561",
"S. c #C99662",
"D. c #CA9662",
"F. c #CA9763",
"G. c #CB9863",
"H. c #CB9864",
"J. c #CB9964",
"K. c #CD9B65",
"L. c #CE9B66",
"P. c #CE9C66",
"I. c #CE9C67",
"U. c #CF9D67",
"Y. c #D09E68",
"T. c #D09F68",
"R. c #D19F69",
"E. c #CDA764",
"W. c #CEA765",
"Q. c #CBA862",
"!. c #D2A069",
"~. c #D3A16A",
"^. c #D3A26B",
"/. c #D4A26B",
"(. c #D4A36B",
"). c #D5A46C",
"_. c #D6A46D",
"`. c #D6A56D",
"'. c #93D045",
"]. c #94D045",
"[. c #95D147",
"{. c #98D34D",
"}. c #9DD452",
"|. c #9ED559",
" X c #AAD855",
".X c #A4D75E",
"XX c #A6D85F",
"oX c #8ADC72",
"OX c #96D971",
"+X c #97DE70",
"@X c #93DE78",
"#X c #96DF7F",
"$X c #A6D866",
"%X c #A9DA6B",
"&X c #B5DC63",
"*X c #BBDF66",
"=X c #AFDD76",
"-X c #B2DE7D",
";X c #BBE076",
":X c #CFE35D",
">X c #D8E455",
",X c #C7E36C",
"<X c #C8E269",
"1X c #CBE76E",
"2X c #D4E66F",
"3X c #CBE770",
"4X c #CCE470",
"5X c #B5E28E",
"6X c #BEECB8",
"7X c #C3E384",
"8X c #C1E388",
"9X c #D6EA99",
"0X c #D3EA9D",
"qX c #DCEEAE",
/* pixels */
"                                                                                                                                            ",
"            `.                `.                  `.                  `.                                                                    ",
"            `.`.              `.`.                `.                  `.                `.`.              `.`.                  `.          ",
"          `.`.`.            `.`.`.              `.`.`.              `.`.                `.`.              `.`.                  `.          ",
"          `.`.`.            `.`.`.              `.`.`.              `.`.`.            `.`.`.              `.`.                `.`.`.        ",
"          `.`.`.            `.`.`.              `.`.`.              `.`.`.            `.`.`.              `.`.                `.`.`.        ",
"          `.`.`.            `.`.`.              `.`.`.              `.`.`.            `.`.`.              `.`.                `.`.`.        ",
"          `.`.`.            `.`.`.    = =       `.`.`.              `.`.`.            `.`.`.              `.`.                `.`.`.        ",
"          `.`.`.            `.`.`.    = =       `.`.`.              `.`.`.            `.`.`.              `.`.                `.`.`.        ",
"          `.`.`.            `.`.`.    = =       `.`.`.              `.`.              `.`.`.              `.`.                `.`.`.        ",
"          `.`.`.            `.`.`.    = =       `.`.`.              `.`.              `.`.`.            `.`.`.        = =     `.`.`.        ",
"  o o o o `.P.F.o o o o o o P.L.Y., . w w 0     !.!.Y.              `.`.F.            !.`.`.            !.`.`.        = =     `.`.`.        ",
"  o o o o G.4 B.o o o o o o C.o F.o o o o o o $ F.2 F.o o o o o $ 8 k.M.f.o o o o o o l.j.!.: o o o o o N.Z.Y.5 o o # . X o 4 !.F.B.o o o   ",
"  o o o o /.F.B.o o o o o o F.k.L.$ o o o o o : G.9 F.o o o o o o 8 N.M.g.o o o o o o M.7 !.: o o o o o b.7 Z., o # # o o o 2 M.6 j.o o o   ",
"          `.`.!.            !.`.!.  q & % q o , Y.`.P.o o o o o o f.`.`.j.o o o o o o L.(.`.: o o o o o N.^.`.2 o o # # o o 2 !.L.j.o o o   ",
"          `.`.`.            `.`.`.    = = =     `.`.`.              `.`.              `.`.`.            !.`.`.      - ; ;     `.`.P.        ",
"  H H H H q.q.9.H H H H H H w.z.z.  4.O O +     x.x.v.              V.V.              Q.E.E.            `.`.`.      = = =     `.`.`.        ",
"  H H H H H H H H H H H H H H H H H H H H H H H G G H H H H +.{.` H H H H H H H H H H L P P H H H H H H U 7.7.H H H S 6.5.H P 0.q.8.H H H   ",
"  H H H H i.H H H H H H H H H H H H H H H H H H G G G G H H 7X:X].H H H H H H H H H H H H H H H H H H H H H H H H H H H H H H H G G G G H   ",
"  H H H [.1Xa.H H H H H H H H H H H H H H H H H G G G G H H .X0X' H H H H H H H H H H H H H H H H H H H r.' H H H H H H H H H H G G G G H   ",
"  H H H X.-X( K H H H H H H H H H H H H H H H H G G G G G G X.y.H H H H H H H H H H H H H H H H H H H X.7X}.H H H H H H H H H H H } +./ H   ",
"  H H H K _ H / H H H H H H H H H H H _ | H H H G G G G G G / H H H H H H H H H H H H H H H H H H H H } 2X&XH H H H H H H H H H /  X*X/ H   ",
"  H H H H H H H H H H H H H H H H H H d.=X[ H H G G G G G G H H H H H H H H H H H H H H H H H H H H H H -X|.H H H H H H H H H H H X.a.H H   ",
"  H H H H H H H H H H H H H H H H H H qX>X%XH H G G G G G G H H H H H H H H H H H H H H H H H H H H H H H H H H H H H H H H H H H H H H H   ",
"  H H H H H H H H H H H H H H H H H H .X9X| / H H H H H H H H H H H G G G G G G G G G G G G H H H H H H H H H H H H G G G G G G H H H H H   ",
"  H H H H H H H H ' $XH H / H H H H H y.t.{ H H H H H H H H H H H H G G G G J './ G G G G G H H H H H H H H H H H H G G G G G G H H H H H   ",
"  z z z z z z z x 5X<XOXl l l l l l l l V C Z Z Z Z Z Z Z Z Z Z Z A F F D D s.,X] F F A A ^ G H H H H H H H H H H G G G G G G G H H H H H   ",
"  y y y y y y y a ,.1XE t t t t y y y y y y y y y y y y y y y y i f i f f i B @.g f f f r h r h h h h h h h h h j z z z z z z z z z z z x   ",
"  y y y y y y y y 2.:.E t t t t y y y y y y y y y y y y y y y y y y y y d y y y y y y y y y y y y y y y y y y y y y y y y y y y y y y y y   ",
"  y y y y y y y y y y y t t t t y y y y y y y y y y y y y y y y y y y y y y y y y y y y y y y y y y y y y y y y y y y y y y y y y y y y y   ",
"  y y y y y y y y y y y t t t t y y y y y y y y y y y y y y y y y y y y y y y y y y y y y y y y y y y y y y y y y y y %.d y y y y y y y y   ",
"  y y y y y y y y y y y t t t t y y y y y y y y y y y y y y y y y y y y y y y y y y y y y y y y y y y y y y y y y y y @Xv y y y y y y y y   ",
"  y y y y y y y y y y y y y y y y y y y y y y y y y y y y y y y y y y y y y y y y y y y y y y y y y y y y y y y y y y m y y y y y y y y y   ",
"  y y y y y y y y y y y y y y y y y y y y y y y y y y y y y y y y y y y y y y y y y y y y y y y y y y y y y y y y y y y y y y y y y y y y   ",
"  y y y y y y y y y y y y y y y y y y y y y y y y #.&.y y y y y y y y y y y y y y y y y y y y y y y y y y y y y y y y y y y y y y y y y y   ",
"  y y y y y y y y y y y y y y y y y y y y y y y y =.oXy y y y y y y y y y y y y y y y y y y y y y y y y y y y y y y y y y y y y y y y y y   ",
"  y y y y y y y y y y y y y y y y y y y y y y y y n T y y y y y y y y y y y y y y y y y y y y y y d 3.d y y y y y y y y y y y y y ~ *.y y   ",
"  y y y y y y y y y y y y y y y y y y y y y y y y y y y y y y y y y y y y y y y d y y y y y y y y 6X1X:.y y y y y y y y y y y y y ;.1.y y   ",
"  y y y y y y y y y y y y y y y y y y y y y y y y y y y y y y y y y y y y y y y -.Q y y y y y y y <.+Xm y y y y y y y y y y y y y N Y y y   ",
"  y y y y y y y y y y y y y y y y y y y y y y y y y y y y y y y y y y y y y y y #X$.y y y y y y y Q R v y y y y y y y y y y y y y y y y y   ",
"                                                                                                            y y y y y y y y y y y y y y y   "
};
