/* XPM */
static char *result[] = {
/* columns rows colors chars-per-pixel */
"44 68 20 1 ",
"  c black",
". c gray6",
"X c #1A100B",
"o c #2C1B12",
"O c #001620",
"+ c gray14",
"@ c #482D1E",
"# c #633E29",
"$ c #754831",
"% c #1F0345",
"& c #003A53",
"* c gray25",
"= c #B96939",
"- c #CC865B",
"; c #3C0684",
": c #4D07AB",
"> c #00618A",
", c #0086BF",
"< c white",
"1 c None",
/* pixels */
"11111111111111111111111111111111111111111111",
"11111111111111111111111111111111111111111111",
"11111111111111111111111111111111111111111111",
"11111111111111111111111111111111111111111111",
"11111111111111111111111111111111111111111111",
"11111111111111111111111111111111111111111111",
"11111111111111111111111111111111111111111111",
"11111111111111111111111111111111111111111111",
"11111111111111111111111111111111111111111111",
"11111111111111111111111111111111111111111111",
"11111111111111111111111111111111111111111111",
"11111111111111111111111111111111111111111111",
"11111111111111111111111111111111111111111111",
"11111111111111111111111111111111111111111111",
"11111111ooooooooooooooooooXXXXXXXXXX11111111",
"11111111ooooooooooooooooooXXXXXXXXXX11111111",
"11111111oo################@@@@@@@@XX11111111",
"11111111oo################@@@@@@@@XX11111111",
"11111111oo################@@@@@@@@XX11111111",
"11111111oo################@@@@@@@@XX11111111",
"11111111oo##------------##@@@@@@@@XX11111111",
"11111111oo##------------##@@@@@@@@XX11111111",
"11111111oo----------------@@====@@XX11111111",
"11111111oo----------------@@====@@XX11111111",
"11111111oo--<<;;----;;<<--======@@XX11111111",
"11111111oo--<<;;----;;<<--======@@XX11111111",
"11111111oo------$$$$------======@@XX11111111",
"11111111oo------$$$$------======@@XX11111111",
"11111111oo----@@----@@----========  11111111",
"11111111oo----@@----@@----========  11111111",
"11111111oo----@@@@@@@@----========  11111111",
"11111111oo----@@@@@@@@----========  11111111",
"11111111XXXXXXXXXXXXXXXXXXXXXXOOOOOOOO111111",
"11111111XXXXXXXXXXXXXXXXXXXXXXOOOOOOOO111111",
"11111111OO>>OO>>>>>>>>>>>>>>OO,,,,>>OO111111",
"11111111OO>>OO>>>>>>>>>>>>>>OO,,,,>>OO111111",
"11111111OO,,&&,,,,,,,,,,,,>>OO>>,,>>OO111111",
"11111111OO,,&&,,,,,,,,,,,,>>OO>>,,>>OO111111",
"11111111OO,,&&>>,,,,,,,,,,>>OO,,,,>>OO111111",
"11111111OO,,&&>>,,,,,,,,,,>>OO,,,,>>OO111111",
"11111111oo==&&>>,,,,,,,,>>>>oo----==XX111111",
"11111111oo==&&>>,,,,,,,,>>>>oo----==XX111111",
"11111111oo==&&>>,,>>,,,,>>>>oo----==XX111111",
"11111111oo==&&>>,,>>,,,,>>>>oo----==XX111111",
"11111111oo--&&,,,,>>,,,,,,>>oo--====XX111111",
"11111111oo--&&,,,,>>,,,,,,>>oo--====XX111111",
"11111111oo--OO,,,,,,,,,,,,&&oo--====XX111111",
"11111111oo--OO,,,,,,,,,,,,&&oo--====XX111111",
"11111111oo--%%>>>>::::::::;;oo----==XX111111",
"11111111oo--%%>>>>::::::::;;oo----==XX111111",
"11111111oo==%%;;::::;;::::::oo==--==  111111",
"11111111oo==%%;;::::;;::::::oo==--==  111111",
"11111111oooo%%::::::%%::::::XXXXXXXX  111111",
"11111111oooo%%::::::%%::::::XXXXXXXX  111111",
"111111111111%%::::::%%::;;::;;;;%%1111111111",
"111111111111%%::::::%%::;;::;;;;%%1111111111",
"111111111111%%;;::::%%::::::;;;;%%1111111111",
"111111111111%%;;::::%%::::::;;;;%%1111111111",
"111111111111......................1111111111",
"111111111111......................1111111111",
"1111111111..******++..******++++..1111111111",
"1111111111..******++..******++++..1111111111",
"1111111111........................1111111111",
"1111111111........................1111111111",
"11111111111111111111111111111111111111111111",
"11111111111111111111111111111111111111111111",
"11111111111111111111111111111111111111111111",
"11111111111111111111111111111111111111111111"
};
