/* XPM */
static char *result[] = {
/* columns rows colors chars-per-pixel */
"65 64 156 2 ",
"   c #66674A",
".  c #6C6F52",
"X  c #B2B497",
"o  c #919375",
"O  c #6C6E50",
"+  c #A5A88A",
"@  c #A6A98B",
"#  c #6C6E51",
"$  c #7D7E61",
"%  c #B1B396",
"&  c #888B6E",
"*  c #6B6F51",
"=  c #717457",
"-  c #B2B598",
";  c #95987B",
":  c #717557",
">  c #A7AA8D",
",  c #A6AA8C",
"<  c #818567",
"1  c #8B8E71",
"2  c #938C6B",
"3  c #948D6C",
"4  c #9D9675",
"5  c #989270",
"6  c #9C997A",
"7  c #A8AB8E",
"8  c #948D6D",
"9  c #9B9473",
"0  c #989474",
"q  c #A3A487",
"w  c #968F6E",
"e  c #989170",
"r  c #A56420",
"t  c #A2814F",
"y  c #A36523",
"u  c #B66D24",
"i  c #976D39",
"p  c #A19A77",
"a  c #AE6924",
"s  c #A68250",
"d  c #AB6A26",
"f  c #C07428",
"g  c #9B703A",
"h  c #A09877",
"j  c #916E3C",
"k  c #A86723",
"l  c #7D7754",
"z  c #8D6A37",
"x  c #A76722",
"c  c #766F4D",
"v  c #A56320",
"b  c #886736",
"n  c #9F621F",
"m  c #B56D24",
"M  c #976E39",
"N  c #86744C",
"B  c #6F5E36",
"V  c #68572F",
"C  c #6C6541",
"Z  c #685730",
"A  c #6A582F",
"S  c #6B5930",
"D  c #948965",
"F  c #757555",
"G  c #9A9D80",
"H  c #737659",
"J  c #666A4C",
"K  c #6C7053",
"L  c #686C4E",
"P  c #AAAD90",
"I  c #76795C",
"U  c #B0B396",
"Y  c #ACAE92",
"T  c #ABAD91",
"R  c #B1B497",
"E  c #ACAF92",
"W  c #9A6A32",
"Q  c #A59B79",
"!  c #A8A787",
"~  c #9A6D37",
"^  c #996932",
"/  c #A08F68",
"(  c #AEAE8F",
")  c #997340",
"_  c #9C9472",
"`  c #ABAA8B",
"'  c #9A6A31",
"]  c #A69973",
"[  c #A7A383",
"{  c #BC752D",
"}  c #BD7227",
"|  c #A88D61",
" . c #AEAD8D",
".. c #B57836",
"X. c #BF7328",
"o. c #998D68",
"O. c #A9A788",
"+. c #7E704A",
"@. c #A9A888",
"#. c #B07432",
"$. c #8D8B6C",
"%. c #766942",
"&. c #B07331",
"*. c #888667",
"=. c #875820",
"-. c #6E6643",
";. c #A8A687",
":. c #90642E",
">. c #875921",
",. c #9D8C65",
"<. c #A6A687",
"1. c #855F2C",
"2. c #8C5D25",
"3. c #9C9371",
"4. c #878768",
"5. c #6A6D4F",
"6. c #707456",
"7. c #949678",
"8. c #707355",
"9. c #A6A98C",
"0. c #808365",
"q. c #998760",
"w. c #A29A77",
"e. c #9A8962",
"r. c #9C895F",
"t. c #9E926D",
"y. c #B66E24",
"u. c #AA8551",
"i. c #BA6D23",
"p. c #D47824",
"a. c #A37239",
"s. c #A29A78",
"d. c #9B753F",
"f. c #C17023",
"g. c #E17F28",
"h. c #A9753A",
"j. c #827957",
"k. c #956F39",
"l. c #C06F22",
"z. c #76704D",
"x. c #B26B23",
"c. c #8E6B37",
"v. c #B2671E",
"b. c #CF7523",
"n. c #A17138",
"m. c #8A8260",
"M. c #706946",
"N. c #68613E",
"B. c #706D4C",
"V. c #68613F",
"C. c #69623F",
"Z. c #9B9675",
"A. c #7A7B5C",
"S. c #AFB295",
"D. c #A9AC8F",
"F. c #ABAE91",
/* pixels */
"                  . X o                                       O + @ #                                     $ % &                   ",
"* * * * * * * * * = - ; * * * * * * * * * * * * * * * * * * * : > , : * * * * * * * * * * * * * * * * * * < - 1 * * * * * * * * * ",
"2 2 2 2 2 2 2 2 2 3 4 5 2 2 2 2 2 2 2 2 6 7 8 2 2 2 2 2 2 2 2 3 9 9 3 2 2 2 2 2 2 2 0 7 q 2 2 2 2 2 2 2 2 w 4 e 2 2 2 2 2 2 2 2 2 ",
"r r r r r r r r r r r r r r r r r r r r t - y u u u u u u u u u u u u u u u u u u u i - p r r r r r r r r r r r r r r r r r r r r ",
"a a a a a a a a a a a a a a a a a a a a s - d f f f f f f f f f f f f f f f f f f f g - h a a a a a a a a a a a a a a a a a a a a ",
"a a a a a a a a a a a a a a a a a a a a j - k f f f f f f f f f f f f f f f f f f f g - l a a a a a a a a a a a a a a a a a a a a ",
"a a a a a a a a a a a a a a a a a a a a z - x f f f f f f f f f f f f f f f f f f f g - c a a a a a a a a a a a a a a a a a a a a ",
"a a a a a a a a a a a a a a a a a a a a z - x f f f f f f f f f f f f f f f f f f f g - c a a a a a a a a a a a a a a a a a a a a ",
"a a a a a a a a a a a a a a a a a a a a z - x f f f f f f f f f f f f f f f f f f f g - c a a a a a a a a a a a a a a a a a a a a ",
"a a a a a a a a a a a a a a a a a a a a z - x f f f f f f f f f f f f f f f f f f f g - c a a a a a a a a a a a a a a a a a a a a ",
"a a a a a a a a a a a a a a a a a a a a z - x f f f f f f f f f f f f f f f f f f f g - c a a a a a a a a a a a a a a a a a a a a ",
"a a a a a a a a a a a a a a a a a a a a z - x f f f f f f f f f f f f f f f f f f f g - c a a a a a a a a a a a a a a a a a a a a ",
"a a a a a a a a a a a a a a a a a a a a z - x f f f f f f f f f f f f f f f f f f f g - c a a a a a a a a a a a a a a a a a a a a ",
"a a a a a a a a a a a a a a a a a a a a z - x f f f f f f f f f f f f f f f f f f f g - c a a a a a a a a a a a a a a a a a a a a ",
"a a a a a a a a a a a a a a a a a a a a z - x f f f f f f f f f f f f f f f f f f f g - c a a a a a a a a a a a a a a a a a a a a ",
"a a a a a a a a a a a a a a a a a a a a z - x f f f f f f f f f f f f f f f f f f f g - c a a a a a a a a a a a a a a a a a a a a ",
"a a a a a a a a a a a a a a a a a a a a z - x f f f f f f f f f f f f f f f f f f f g - c a a a a a a a a a a a a a a a a a a a a ",
"a a a a a a a a a a a a a a a a a a a a z - x f f f f f f f f f f f f f f f f f f f g - c a a a a a a a a a a a a a a a a a a a a ",
"a a a a a a a a a a a a a a a a a a a a z - x f f f f f f f f f f f f f f f f f f f g - c a a a a a a a a a a a a a a a a a a a a ",
"r v v v v v v v v v v v v v v v v v v v b - n m m m m m m m m m m m m m m m m m m m M - c r v v v v v v v v v v v v v v v v v v r ",
"N B V V V V V V V V V V V V V V V V V V C - Z A A A A A A A A A A A A A A A A A A S D - F V V V V V V V V V V V V V V V V V V V N ",
"G H J J J J J J J J J J J J J J J J J J K - J J J J J J J J J J J J J J J J J J J L P - I J J J J J J J J J J J J J J J J J J J G ",
"U Y T T T T T T T P P T T T T T T T T T Y - T T T T T T T T T T P P T T T T T T T T R - E T T T T T T T T T T P T T T T T T T T U ",
"W W W W W W W W W Q ! ~ W W W W W W W W W W W W W W W W W W W ^ / ( ) W W W W W W W W W W W W W W W W W W W _ ` ' W W W W W W W W ",
"f f f f f f f f f ] [ { f f f f f f f f f f f f f f f f f f f } |  ...f f f f f f f f f f f f f f f f f f X.o.O.f f f f f f f f f ",
"f f f f f f f f f +.[ { f f f f f f f f f f f f f f f f f f f } | @.#.f f f f f f f f f f f f f f f f f f X.o.$.f f f f f f f f f ",
"f f f f f f f f f %.[ { f f f f f f f f f f f f f f f f f f f } | ! &.f f f f f f f f f f f f f f f f f f X.o.*.f f f f f f f f f ",
"f f f f f f f f f %.[ { f f f f f f f f f f f f f f f f f f f } | ! &.f f f f f f f f f f f f f f f f f f X.o.*.f f f f f f f f f ",
"f f f f f f f f f %.[ { f f f f f f f f f f f f f f f f f f f } | ! &.f f f f f f f f f f f f f f f f f f X.o.*.f f f f f f f f f ",
"f f f f f f f f f %.[ { f f f f f f f f f f f f f f f f f f f } | ! &.f f f f f f f f f f f f f f f f f f X.o.*.f f f f f f f f f ",
"f f f f f f f f f %.[ { f f f f f f f f f f f f f f f f f f f } | ! &.f f f f f f f f f f f f f f f f f f X.o.*.f f f f f f f f f ",
"f f f f f f f f f %.[ { f f f f f f f f f f f f f f f f f f f } | ! &.f f f f f f f f f f f f f f f f f f X.o.*.f f f f f f f f f ",
"f f f f f f f f f %.[ { f f f f f f f f f f f f f f f f f f f } | ! &.f f f f f f f f f f f f f f f f f f X.o.*.f f f f f f f f f ",
"f f f f f f f f f %.[ { f f f f f f f f f f f f f f f f f f f } | ! &.f f f f f f f f f f f f f f f f f f X.o.*.f f f f f f f f f ",
"f f f f f f f f f %.[ { f f f f f f f f f f f f f f f f f f f } | ! &.f f f f f f f f f f f f f f f f f f X.o.*.f f f f f f f f f ",
"f f f f f f f f f %.[ { f f f f f f f f f f f f f f f f f f f } | ! &.f f f f f f f f f f f f f f f f f f X.o.*.f f f f f f f f f ",
"f f f f f f f f f %.[ { f f f f f f f f f f f f f f f f f f f } | ! &.f f f f f f f f f f f f f f f f f f X.o.*.f f f f f f f f f ",
"f f f f f f f f f %.[ { f f f f f f f f f f f f f f f f f f f } | ! &.f f f f f f f f f f f f f f f f f f X.o.*.f f f f f f f f f ",
"f f f f f f f f f %.[ { f f f f f f f f f f f f f f f f f f f } | ! &.f f f f f f f f f f f f f f f f f f X.o.*.f f f f f f f f f ",
"f f f f f f f f f %.[ { f f f f f f f f f f f f f f f f f f f } | ! &.f f f f f f f f f f f f f f f f f f X.o.*.f f f f f f f f f ",
"=.=.=.=.=.=.=.=.=.-.;.:.=.=.=.=.=.=.=.=.=.=.=.=.=.=.=.=.=.=.=.>.,.<.1.=.=.=.=.=.=.=.=.=.=.=.=.=.=.=.=.=.=.2.3.4.=.=.=.=.=.=.=.=.=.",
"5.5.5.5.5.5.5.5.5.6.- 7.5.5.5.5.5.5.5.5.5.5.5.5.5.5.5.5.5.5.5.8.9.9.8.5.5.5.5.5.5.5.5.5.5.5.5.5.5.5.5.5.5.0.R 1 5.5.5.5.5.5.5.5.5.",
"- - - - - - - - - - - - - - - - - - - - - - - - - - - - - - - - - - - - - - - - - - - - - - - - - - - - - - - - - - - - - - - - - ",
"q.q.q.q.q.q.q.q.q.q.q.q.q.q.q.q.q.q.q.q.w.- e.r.r.r.r.r.r.r.r.r.r.r.r.r.r.r.r.r.r.r.t.- ` q.q.q.q.q.q.q.q.q.q.q.q.q.q.q.q.q.q.q.q.",
"y.y.y.y.y.y.y.y.y.y.y.y.y.y.y.y.y.y.y.y.u.- i.p.p.p.p.p.p.p.p.p.p.p.p.p.p.p.p.p.p.p.a.- s.y.y.y.y.y.y.y.y.y.y.y.y.y.y.y.y.y.y.y.y.",
"f f f f f f f f f f f f f f f f f f f f d.- f.g.g.g.g.g.g.g.g.g.g.g.g.g.g.g.g.g.g.g.h.- j.f f f f f f f f f f f f f f f f f f f f ",
"f f f f f f f f f f f f f f f f f f f f k.- l.g.g.g.g.g.g.g.g.g.g.g.g.g.g.g.g.g.g.g.h.- z.f f f f f f f f f f f f f f f f f f f f ",
"f f f f f f f f f f f f f f f f f f f f k.- l.g.g.g.g.g.g.g.g.g.g.g.g.g.g.g.g.g.g.g.h.- z.f f f f f f f f f f f f f f f f f f f f ",
"f f f f f f f f f f f f f f f f f f f f k.- l.g.g.g.g.g.g.g.g.g.g.g.g.g.g.g.g.g.g.g.h.- z.f f f f f f f f f f f f f f f f f f f f ",
"f f f f f f f f f f f f f f f f f f f f k.- l.g.g.g.g.g.g.g.g.g.g.g.g.g.g.g.g.g.g.g.h.- z.f f f f f f f f f f f f f f f f f f f f ",
"f f f f f f f f f f f f f f f f f f f f k.- l.g.g.g.g.g.g.g.g.g.g.g.g.g.g.g.g.g.g.g.h.- z.f f f f f f f f f f f f f f f f f f f f ",
"f f f f f f f f f f f f f f f f f f f f k.- l.g.g.g.g.g.g.g.g.g.g.g.g.g.g.g.g.g.g.g.h.- z.f f f f f f f f f f f f f f f f f f f f ",
"f f f f f f f f f f f f f f f f f f f f k.- l.g.g.g.g.g.g.g.g.g.g.g.g.g.g.g.g.g.g.g.h.- z.f f f f f f f f f f f f f f f f f f f f ",
"f f f f f f f f f f f f f f f f f f f f k.- l.g.g.g.g.g.g.g.g.g.g.g.g.g.g.g.g.g.g.g.h.- z.f f f f f f f f f f f f f f f f f f f f ",
"f f f f f f f f f f f f f f f f f f f f k.- l.g.g.g.g.g.g.g.g.g.g.g.g.g.g.g.g.g.g.g.h.- z.f f f f f f f f f f f f f f f f f f f f ",
"f f f f f f f f f f f f f f f f f f f f k.- l.g.g.g.g.g.g.g.g.g.g.g.g.g.g.g.g.g.g.g.h.- z.f f f f f f f f f f f f f f f f f f f f ",
"f f f f f f f f f f f f f f f f f f f f k.- l.g.g.g.g.g.g.g.g.g.g.g.g.g.g.g.g.g.g.g.h.- z.f f f f f f f f f f f f f f f f f f f f ",
"f f f f f f f f f f f f f f f f f f f f k.- l.g.g.g.g.g.g.g.g.g.g.g.g.g.g.g.g.g.g.g.h.- z.f f f f f f f f f f f f f f f f f f f f ",
"f f f f f f f f f f f f f f f f f f f f k.- l.g.g.g.g.g.g.g.g.g.g.g.g.g.g.g.g.g.g.g.h.- z.f f f f f f f f f f f f f f f f f f f f ",
"f f f f f f f f f f f f f f f f f f f f k.- l.g.g.g.g.g.g.g.g.g.g.g.g.g.g.g.g.g.g.g.h.- z.f f f f f f f f f f f f f f f f f f f f ",
"x.x.x.x.x.x.x.x.x.x.x.x.x.x.x.x.x.x.x.x.c.- v.b.b.b.b.b.b.b.b.b.b.b.b.b.b.b.b.b.b.b.n.- z.x.x.x.x.x.x.x.x.x.x.x.x.x.x.x.x.x.x.x.x.",
"m.M.N.N.N.N.N.N.N.N.N.N.N.N.N.N.N.N.N.N.B.- V.N.N.N.N.N.N.N.N.N.N.N.N.N.N.N.N.N.N.C.Z.- A.N.N.N.N.N.N.N.N.N.N.N.N.N.N.N.N.N.N.N.m.",
"S.P D.D.D.D.D.D.D.D.D.D.D.D.D.D.D.D.D.D.P - D.D.D.D.D.D.D.D.D.D.D.D.D.D.D.D.D.D.D.D.R - F.D.D.D.D.D.D.D.D.D.D.D.D.D.D.D.D.D.D.D.S.",
"- - - - - - - - - - - - - - - - - - - - - - - - - - - - - - - - - - - - - - - - - - - - - - - - - - - - - - - - - - - - - - - - - "
};
